solid ascii
  facet normal -1.000000e+000 0.000000e+000 0.000000e+000
    outer loop
      vertex   -9.000000e+002 -1.071145e+000 1.095191e+003
      vertex   -9.000000e+002 -1.071146e+000 8.116235e+002
      vertex   -9.000000e+002 -4.899420e+001 8.157023e+002
    endloop
  endfacet
  facet normal -1.000000e+000 0.000000e+000 0.000000e+000
    outer loop
      vertex   -9.000000e+002 -1.071145e+000 1.095191e+003
      vertex   -9.000000e+002 4.685191e+001 8.157023e+002
      vertex   -9.000000e+002 -1.071146e+000 8.116235e+002
    endloop
  endfacet
  facet normal 2.481783e-001 8.215280e-002 -9.652245e-001
    outer loop
      vertex   -4.961166e+001 -1.071159e+000 1.030275e+003
      vertex   -9.000000e+002 -1.071146e+000 8.116235e+002
      vertex   -9.000000e+002 4.685191e+001 8.157023e+002
    endloop
  endfacet
  facet normal 2.481723e-001 -8.215294e-002 -9.652261e-001
    outer loop
      vertex   -3.327175e+002 -1.205853e+001 9.584144e+002
      vertex   -9.000000e+002 -4.899420e+001 8.157023e+002
      vertex   -9.000000e+002 -1.071146e+000 8.116235e+002
    endloop
  endfacet
  facet normal 2.481851e-001 -8.182263e-002 -9.652509e-001
    outer loop
      vertex   -3.327175e+002 -1.205853e+001 9.584144e+002
      vertex   -9.000000e+002 -1.071146e+000 8.116235e+002
      vertex   -4.961166e+001 -1.071159e+000 1.030275e+003
    endloop
  endfacet
  facet normal -1.000000e+000 0.000000e+000 0.000000e+000
    outer loop
      vertex   -9.000000e+002 -1.071145e+000 1.095191e+003
      vertex   -9.000000e+002 9.339631e+001 8.278216e+002
      vertex   -9.000000e+002 4.685191e+001 8.157023e+002
    endloop
  endfacet
  facet normal 2.485778e-001 -9.234599e-002 -9.641998e-001
    outer loop
      vertex   -3.327175e+002 -1.205853e+001 9.584144e+002
      vertex   -4.803123e+001 -1.191170e+001 1.031795e+003
      vertex   -9.000000e+002 -4.899420e+001 8.157023e+002
    endloop
  endfacet
  facet normal 2.491748e-001 -1.836920e-001 -9.508781e-001
    outer loop
      vertex   -4.803123e+001 -1.191170e+001 1.031795e+003
      vertex   -4.627753e+001 -1.824920e+001 1.033478e+003
      vertex   -9.000000e+002 -4.899420e+001 8.157023e+002
    endloop
  endfacet
  facet normal 2.443601e-001 -3.320562e-001 -9.110581e-001
    outer loop
      vertex   -4.627753e+001 -1.824920e+001 1.033478e+003
      vertex   -4.541605e+001 -1.986524e+001 1.034298e+003
      vertex   -9.000000e+002 -4.899420e+001 8.157023e+002
    endloop
  endfacet
  facet normal 2.483651e-001 -2.440835e-001 -9.374103e-001
    outer loop
      vertex   -4.420804e+001 -2.213130e+001 1.035448e+003
      vertex   -9.000000e+002 -9.553860e+001 8.278216e+002
      vertex   -9.000000e+002 -4.899420e+001 8.157023e+002
    endloop
  endfacet
  facet normal -1.000000e+000 0.000000e+000 0.000000e+000
    outer loop
      vertex   -9.000000e+002 -1.071145e+000 1.095191e+003
      vertex   -9.000000e+002 -4.899420e+001 8.157023e+002
      vertex   -9.000000e+002 -9.553860e+001 8.278216e+002
    endloop
  endfacet
  facet normal 2.491788e-001 1.832197e-001 -9.509682e-001
    outer loop
      vertex   -4.802901e+001 9.768932e+000 1.031797e+003
      vertex   -4.905705e+001 6.043904e+000 1.030810e+003
      vertex   -9.000000e+002 4.685191e+001 8.157023e+002
    endloop
  endfacet
  facet normal 2.482037e-001 2.440940e-001 -9.374503e-001
    outer loop
      vertex   -3.306559e+002 3.396940e+001 9.630902e+002
      vertex   -9.000000e+002 4.685191e+001 8.157023e+002
      vertex   -9.000000e+002 9.339631e+001 8.278216e+002
    endloop
  endfacet
  facet normal 2.443628e-001 -3.320067e-001 -9.110754e-001
    outer loop
      vertex   -4.541605e+001 -1.986524e+001 1.034298e+003
      vertex   -4.420804e+001 -2.213130e+001 1.035448e+003
      vertex   -9.000000e+002 -4.899420e+001 8.157023e+002
    endloop
  endfacet
  facet normal 2.471346e-001 5.340737e-002 -9.675082e-001
    outer loop
      vertex   -4.905705e+001 6.043904e+000 1.030810e+003
      vertex   -4.961166e+001 -1.071159e+000 1.030275e+003
      vertex   -9.000000e+002 4.685191e+001 8.157023e+002
    endloop
  endfacet
  facet normal 2.485634e-001 2.352541e-001 -9.396125e-001
    outer loop
      vertex   -3.306559e+002 3.396940e+001 9.630902e+002
      vertex   -4.802901e+001 9.768932e+000 1.031797e+003
      vertex   -9.000000e+002 4.685191e+001 8.157023e+002
    endloop
  endfacet
  facet normal 2.485480e-001 3.907549e-001 -8.863038e-001
    outer loop
      vertex   -3.859065e+002 6.104050e+001 9.577248e+002
      vertex   -4.420701e+001 1.998849e+001 1.035449e+003
      vertex   -9.000000e+002 9.339631e+001 8.278216e+002
    endloop
  endfacet
  facet normal 2.481633e-001 3.990160e-001 -8.827238e-001
    outer loop
      vertex   -3.859065e+002 6.104050e+001 9.577248e+002
      vertex   -9.000000e+002 9.339631e+001 8.278216e+002
      vertex   -9.000000e+002 1.372230e+002 8.476325e+002
    endloop
  endfacet
  facet normal -1.000000e+000 0.000000e+000 0.000000e+000
    outer loop
      vertex   -9.000000e+002 -1.071145e+000 1.095191e+003
      vertex   -9.000000e+002 -9.553860e+001 8.278216e+002
      vertex   -9.000000e+002 -1.393653e+002 8.476325e+002
    endloop
  endfacet
  facet normal 2.485402e-001 2.527463e-001 -9.350653e-001
    outer loop
      vertex   -3.306559e+002 3.396940e+001 9.630902e+002
      vertex   -9.000000e+002 9.339631e+001 8.278216e+002
      vertex   -4.420701e+001 1.998849e+001 1.035449e+003
    endloop
  endfacet
  facet normal 2.485466e-001 -3.907781e-001 -8.862940e-001
    outer loop
      vertex   -3.859067e+002 -6.318289e+001 9.577246e+002
      vertex   -9.000000e+002 -9.553860e+001 8.278216e+002
      vertex   -4.420804e+001 -2.213130e+001 1.035448e+003
    endloop
  endfacet
  facet normal -1.000000e+000 0.000000e+000 0.000000e+000
    outer loop
      vertex   -9.000000e+002 -1.071145e+000 1.095191e+003
      vertex   -9.000000e+002 1.372230e+002 8.476325e+002
      vertex   -9.000000e+002 9.339631e+001 8.278216e+002
    endloop
  endfacet
  facet normal 2.481630e-001 -3.990159e-001 -8.827239e-001
    outer loop
      vertex   -3.859067e+002 -6.318289e+001 9.577246e+002
      vertex   -9.000000e+002 -1.393653e+002 8.476325e+002
      vertex   -9.000000e+002 -9.553860e+001 8.278216e+002
    endloop
  endfacet
  facet normal 2.481780e-001 5.424558e-001 -8.025891e-001
    outer loop
      vertex   -4.730828e+002 9.592355e+001 9.517310e+002
      vertex   -9.000000e+002 1.372230e+002 8.476325e+002
      vertex   -9.000000e+002 1.770713e+002 8.745652e+002
    endloop
  endfacet
  facet normal 2.481909e-001 3.995859e-001 -8.824582e-001
    outer loop
      vertex   -3.859065e+002 6.104050e+001 9.577248e+002
      vertex   -9.000000e+002 1.372230e+002 8.476325e+002
      vertex   -4.365728e+001 2.984121e+001 1.039855e+003
    endloop
  endfacet
  facet normal 2.481781e-001 -5.424558e-001 -8.025892e-001
    outer loop
      vertex   -4.730828e+002 -9.806585e+001 9.517310e+002
      vertex   -9.000000e+002 -1.393653e+002 8.476325e+002
      vertex   -4.365728e+001 -3.198351e+001 1.039855e+003
    endloop
  endfacet
  facet normal 2.481781e-001 5.424557e-001 -8.025892e-001
    outer loop
      vertex   -4.730828e+002 9.592355e+001 9.517310e+002
      vertex   -4.365728e+001 2.984121e+001 1.039855e+003
      vertex   -9.000000e+002 1.372230e+002 8.476325e+002
    endloop
  endfacet
  facet normal -1.000000e+000 0.000000e+000 0.000000e+000
    outer loop
      vertex   -9.000000e+002 -1.071145e+000 1.095191e+003
      vertex   -9.000000e+002 1.770713e+002 8.745652e+002
      vertex   -9.000000e+002 1.372230e+002 8.476325e+002
    endloop
  endfacet
  facet normal 2.481911e-001 -3.995973e-001 -8.824529e-001
    outer loop
      vertex   -3.859067e+002 -6.318289e+001 9.577246e+002
      vertex   -4.365728e+001 -3.198351e+001 1.039855e+003
      vertex   -9.000000e+002 -1.393653e+002 8.476325e+002
    endloop
  endfacet
  facet normal 2.481781e-001 -5.424558e-001 -8.025891e-001
    outer loop
      vertex   -4.730828e+002 -9.806585e+001 9.517310e+002
      vertex   -9.000000e+002 -1.792136e+002 8.745652e+002
      vertex   -9.000000e+002 -1.393653e+002 8.476325e+002
    endloop
  endfacet
  facet normal -1.000000e+000 0.000000e+000 0.000000e+000
    outer loop
      vertex   -9.000000e+002 -1.071145e+000 1.095191e+003
      vertex   -9.000000e+002 -1.393653e+002 8.476325e+002
      vertex   -9.000000e+002 -1.792136e+002 8.745652e+002
    endloop
  endfacet
  facet normal 2.481780e-001 6.702922e-001 -6.993684e-001
    outer loop
      vertex   -4.759590e+002 1.192888e+002 9.696603e+002
      vertex   -4.867389e+001 3.955866e+001 1.044871e+003
      vertex   -9.000000e+002 1.770713e+002 8.745652e+002
    endloop
  endfacet
  facet normal -1.000000e+000 0.000000e+000 0.000000e+000
    outer loop
      vertex   -9.000000e+002 -1.071145e+000 1.095191e+003
      vertex   -9.000000e+002 2.117947e+002 9.078450e+002
      vertex   -9.000000e+002 1.770713e+002 8.745652e+002
    endloop
  endfacet
  facet normal 2.481780e-001 6.702919e-001 -6.993686e-001
    outer loop
      vertex   -4.759590e+002 1.192888e+002 9.696603e+002
      vertex   -9.000000e+002 1.770713e+002 8.745652e+002
      vertex   -9.000000e+002 2.117947e+002 9.078450e+002
    endloop
  endfacet
  facet normal -1.000000e+000 0.000000e+000 0.000000e+000
    outer loop
      vertex   -9.000000e+002 -1.071145e+000 1.095191e+003
      vertex   -9.000000e+002 -1.792136e+002 8.745652e+002
      vertex   -9.000000e+002 -2.139370e+002 9.078450e+002
    endloop
  endfacet
  facet normal 2.481780e-001 5.424557e-001 -8.025892e-001
    outer loop
      vertex   -4.730828e+002 9.592355e+001 9.517310e+002
      vertex   -9.000000e+002 1.770713e+002 8.745652e+002
      vertex   -4.867389e+001 3.955866e+001 1.044871e+003
    endloop
  endfacet
  facet normal 2.481780e-001 -6.702922e-001 -6.993683e-001
    outer loop
      vertex   -4.759590e+002 -1.214311e+002 9.696603e+002
      vertex   -9.000000e+002 -1.792136e+002 8.745652e+002
      vertex   -4.867389e+001 -4.170095e+001 1.044871e+003
    endloop
  endfacet
  facet normal 2.481780e-001 -6.702919e-001 -6.993686e-001
    outer loop
      vertex   -4.759590e+002 -1.214311e+002 9.696603e+002
      vertex   -9.000000e+002 -2.139370e+002 9.078450e+002
      vertex   -9.000000e+002 -1.792136e+002 8.745652e+002
    endloop
  endfacet
  facet normal 2.481781e-001 -5.424558e-001 -8.025892e-001
    outer loop
      vertex   -4.730828e+002 -9.806585e+001 9.517310e+002
      vertex   -4.867389e+001 -4.170095e+001 1.044871e+003
      vertex   -9.000000e+002 -1.792136e+002 8.745652e+002
    endloop
  endfacet
  facet normal 2.481781e-001 -6.702922e-001 -6.993683e-001
    outer loop
      vertex   -4.759590e+002 -1.214311e+002 9.696603e+002
      vertex   -5.516200e+001 -5.087278e+001 1.051360e+003
      vertex   -9.000000e+002 -2.139370e+002 9.078450e+002
    endloop
  endfacet
  facet normal 2.481780e-001 7.788432e-001 -5.760303e-001
    outer loop
      vertex   -4.795741e+002 1.395217e+002 9.912627e+002
      vertex   -5.516200e+001 4.873049e+001 1.051360e+003
      vertex   -9.000000e+002 2.117947e+002 9.078450e+002
    endloop
  endfacet
  facet normal 2.481781e-001 7.788428e-001 -5.760309e-001
    outer loop
      vertex   -4.795741e+002 1.395217e+002 9.912627e+002
      vertex   -9.000000e+002 2.117947e+002 9.078450e+002
      vertex   -9.000000e+002 2.403944e+002 9.465142e+002
    endloop
  endfacet
  facet normal 2.481781e-001 -7.788432e-001 -5.760303e-001
    outer loop
      vertex   -4.795741e+002 -1.416640e+002 9.912627e+002
      vertex   -9.000000e+002 -2.139370e+002 9.078450e+002
      vertex   -5.516200e+001 -5.087278e+001 1.051360e+003
    endloop
  endfacet
  facet normal 2.481781e-001 -7.788428e-001 -5.760309e-001
    outer loop
      vertex   -4.795741e+002 -1.416640e+002 9.912627e+002
      vertex   -9.000000e+002 -2.425367e+002 9.465142e+002
      vertex   -9.000000e+002 -2.139370e+002 9.078450e+002
    endloop
  endfacet
  facet normal -1.000000e+000 0.000000e+000 0.000000e+000
    outer loop
      vertex   -9.000000e+002 -1.071145e+000 1.095191e+003
      vertex   -9.000000e+002 -2.139370e+002 9.078450e+002
      vertex   -9.000000e+002 -2.425367e+002 9.465142e+002
    endloop
  endfacet
  facet normal -1.000000e+000 0.000000e+000 0.000000e+000
    outer loop
      vertex   -9.000000e+002 -1.071145e+000 1.095191e+003
      vertex   -9.000000e+002 2.403944e+002 9.465142e+002
      vertex   -9.000000e+002 2.117947e+002 9.078450e+002
    endloop
  endfacet
  facet normal 2.481781e-001 6.702922e-001 -6.993683e-001
    outer loop
      vertex   -4.759590e+002 1.192888e+002 9.696603e+002
      vertex   -9.000000e+002 2.117947e+002 9.078450e+002
      vertex   -5.516200e+001 4.873049e+001 1.051360e+003
    endloop
  endfacet
  facet normal 2.481781e-001 -8.649903e-001 -4.361186e-001
    outer loop
      vertex   -4.839301e+002 -1.582057e+002 1.016023e+003
      vertex   -9.000000e+002 -2.425367e+002 9.465142e+002
      vertex   -6.313425e+001 -5.930937e+001 1.059332e+003
    endloop
  endfacet
  facet normal 2.481781e-001 -8.649906e-001 -4.361181e-001
    outer loop
      vertex   -4.839301e+002 -1.582057e+002 1.016023e+003
      vertex   -9.000000e+002 -2.641898e+002 9.894608e+002
      vertex   -9.000000e+002 -2.425367e+002 9.465142e+002
    endloop
  endfacet
  facet normal 2.481781e-001 8.649901e-001 -4.361190e-001
    outer loop
      vertex   -4.839301e+002 1.560634e+002 1.016023e+003
      vertex   -6.313425e+001 5.716708e+001 1.059332e+003
      vertex   -9.000000e+002 2.403944e+002 9.465142e+002
    endloop
  endfacet
  facet normal 2.481781e-001 7.788432e-001 -5.760303e-001
    outer loop
      vertex   -4.795741e+002 1.395217e+002 9.912627e+002
      vertex   -9.000000e+002 2.403944e+002 9.465142e+002
      vertex   -6.313425e+001 5.716708e+001 1.059332e+003
    endloop
  endfacet
  facet normal -1.000000e+000 0.000000e+000 0.000000e+000
    outer loop
      vertex   -9.000000e+002 -1.071145e+000 1.095191e+003
      vertex   -9.000000e+002 -2.425367e+002 9.465142e+002
      vertex   -9.000000e+002 -2.641898e+002 9.894608e+002
    endloop
  endfacet
  facet normal -1.000000e+000 0.000000e+000 0.000000e+000
    outer loop
      vertex   -9.000000e+002 -1.071145e+000 1.095191e+003
      vertex   -9.000000e+002 2.620476e+002 9.894608e+002
      vertex   -9.000000e+002 2.403944e+002 9.465142e+002
    endloop
  endfacet
  facet normal 2.481781e-001 8.649903e-001 -4.361186e-001
    outer loop
      vertex   -4.839301e+002 1.560634e+002 1.016023e+003
      vertex   -9.000000e+002 2.403944e+002 9.465142e+002
      vertex   -9.000000e+002 2.620476e+002 9.894608e+002
    endloop
  endfacet
  facet normal 2.481781e-001 -7.788432e-001 -5.760303e-001
    outer loop
      vertex   -4.795741e+002 -1.416640e+002 9.912627e+002
      vertex   -6.313425e+001 -5.930937e+001 1.059332e+003
      vertex   -9.000000e+002 -2.425367e+002 9.465142e+002
    endloop
  endfacet
  facet normal 2.481781e-001 -5.424555e-001 -8.025894e-001
    outer loop
      vertex   -4.730828e+002 -9.806585e+001 9.517310e+002
      vertex   -4.365728e+001 -3.198351e+001 1.039855e+003
      vertex   -4.867389e+001 -4.170095e+001 1.044871e+003
    endloop
  endfacet
  facet normal 2.481780e-001 5.424553e-001 -8.025895e-001
    outer loop
      vertex   -4.730828e+002 9.592355e+001 9.517310e+002
      vertex   -4.867389e+001 3.955866e+001 1.044871e+003
      vertex   -4.365728e+001 2.984121e+001 1.039855e+003
    endloop
  endfacet
  facet normal 2.469133e-001 -3.305908e-001 -9.109026e-001
    outer loop
      vertex   -3.859067e+002 -6.318289e+001 9.577246e+002
      vertex   -4.420804e+001 -2.213130e+001 1.035448e+003
      vertex   -4.166819e+001 -2.689573e+001 1.037866e+003
    endloop
  endfacet
  facet normal 2.474110e-001 -4.351602e-001 -8.656924e-001
    outer loop
      vertex   -3.859067e+002 -6.318289e+001 9.577246e+002
      vertex   -4.166819e+001 -2.689573e+001 1.037866e+003
      vertex   -4.365728e+001 -3.198351e+001 1.039855e+003
    endloop
  endfacet
  facet normal 2.474105e-001 4.351601e-001 -8.656926e-001
    outer loop
      vertex   -3.859065e+002 6.104050e+001 9.577248e+002
      vertex   -4.365728e+001 2.984121e+001 1.039855e+003
      vertex   -4.166819e+001 2.475344e+001 1.037866e+003
    endloop
  endfacet
  facet normal 2.469101e-001 3.304499e-001 -9.109546e-001
    outer loop
      vertex   -3.859065e+002 6.104050e+001 9.577248e+002
      vertex   -4.166819e+001 2.475344e+001 1.037866e+003
      vertex   -4.420701e+001 1.998849e+001 1.035449e+003
    endloop
  endfacet
  facet normal 2.476299e-001 -5.372825e-002 -9.673638e-001
    outer loop
      vertex   -3.327175e+002 -1.205853e+001 9.584144e+002
      vertex   -4.961189e+001 -1.074076e+000 1.030275e+003
      vertex   -4.905032e+001 -8.228926e+000 1.030816e+003
    endloop
  endfacet
  facet normal 2.453833e-001 -1.849440e-001 -9.516211e-001
    outer loop
      vertex   -3.327175e+002 -1.205853e+001 9.584144e+002
      vertex   -4.905032e+001 -8.228926e+000 1.030816e+003
      vertex   -4.803123e+001 -1.191170e+001 1.031795e+003
    endloop
  endfacet
  facet normal 2.432975e-001 6.191885e-002 -9.679733e-001
    outer loop
      vertex   -3.327175e+002 -1.205853e+001 9.584144e+002
      vertex   -4.961166e+001 -1.071159e+000 1.030275e+003
      vertex   -4.961189e+001 -1.074076e+000 1.030275e+003
    endloop
  endfacet
  facet normal 2.470329e-001 1.839544e-001 -9.513861e-001
    outer loop
      vertex   -3.306559e+002 3.396940e+001 9.630902e+002
      vertex   -4.628490e+001 1.608862e+001 1.033471e+003
      vertex   -4.802901e+001 9.768932e+000 1.031797e+003
    endloop
  endfacet
  facet normal 2.462703e-001 3.308139e-001 -9.109957e-001
    outer loop
      vertex   -3.306559e+002 3.396940e+001 9.630902e+002
      vertex   -4.420701e+001 1.998849e+001 1.035449e+003
      vertex   -4.541454e+001 1.772216e+001 1.034300e+003
    endloop
  endfacet
  facet normal 2.462721e-001 3.307588e-001 -9.110152e-001
    outer loop
      vertex   -3.306559e+002 3.396940e+001 9.630902e+002
      vertex   -4.541454e+001 1.772216e+001 1.034300e+003
      vertex   -4.628490e+001 1.608862e+001 1.033471e+003
    endloop
  endfacet
  facet normal 2.481780e-001 6.702933e-001 -6.993672e-001
    outer loop
      vertex   -4.759590e+002 1.192888e+002 9.696603e+002
      vertex   -5.516200e+001 4.873049e+001 1.051360e+003
      vertex   -4.867389e+001 3.955866e+001 1.044871e+003
    endloop
  endfacet
  facet normal 2.481780e-001 -6.702933e-001 -6.993672e-001
    outer loop
      vertex   -4.759590e+002 -1.214311e+002 9.696603e+002
      vertex   -4.867389e+001 -4.170095e+001 1.044871e+003
      vertex   -5.516200e+001 -5.087278e+001 1.051360e+003
    endloop
  endfacet
  facet normal 2.481780e-001 -8.649903e-001 -4.361186e-001
    outer loop
      vertex   -4.839301e+002 -1.582057e+002 1.016023e+003
      vertex   -7.258620e+001 -6.678685e+001 1.068784e+003
      vertex   -9.000000e+002 -2.641898e+002 9.894608e+002
    endloop
  endfacet
  facet normal -1.000000e+000 0.000000e+000 0.000000e+000
    outer loop
      vertex   -9.000000e+002 -1.071145e+000 1.095191e+003
      vertex   -9.000000e+002 -2.641898e+002 9.894608e+002
      vertex   -9.000000e+002 -2.782735e+002 1.035449e+003
    endloop
  endfacet
  facet normal 2.481780e-001 -9.262526e-001 -2.836614e-001
    outer loop
      vertex   -4.890170e+002 -1.705733e+002 1.043343e+003
      vertex   -9.000000e+002 -2.641898e+002 9.894608e+002
      vertex   -7.258620e+001 -6.678685e+001 1.068784e+003
    endloop
  endfacet
  facet normal 2.481780e-001 -9.262526e-001 -2.836613e-001
    outer loop
      vertex   -4.890170e+002 -1.705733e+002 1.043343e+003
      vertex   -9.000000e+002 -2.782735e+002 1.035449e+003
      vertex   -9.000000e+002 -2.641898e+002 9.894608e+002
    endloop
  endfacet
  facet normal 2.481781e-001 8.649901e-001 -4.361190e-001
    outer loop
      vertex   -4.839301e+002 1.560634e+002 1.016023e+003
      vertex   -9.000000e+002 2.620476e+002 9.894608e+002
      vertex   -7.258620e+001 6.464456e+001 1.068784e+003
    endloop
  endfacet
  facet normal 2.481780e-001 9.262526e-001 -2.836613e-001
    outer loop
      vertex   -4.890170e+002 1.684310e+002 1.043343e+003
      vertex   -9.000000e+002 2.620476e+002 9.894608e+002
      vertex   -9.000000e+002 2.761313e+002 1.035449e+003
    endloop
  endfacet
  facet normal -1.000000e+000 0.000000e+000 0.000000e+000
    outer loop
      vertex   -9.000000e+002 -1.071145e+000 1.095191e+003
      vertex   -9.000000e+002 2.761313e+002 1.035449e+003
      vertex   -9.000000e+002 2.620476e+002 9.894608e+002
    endloop
  endfacet
  facet normal 2.481781e-001 9.262526e-001 -2.836614e-001
    outer loop
      vertex   -4.890170e+002 1.684310e+002 1.043343e+003
      vertex   -7.258620e+001 6.464456e+001 1.068784e+003
      vertex   -9.000000e+002 2.620476e+002 9.894608e+002
    endloop
  endfacet
  facet normal 2.481781e-001 7.788449e-001 -5.760280e-001
    outer loop
      vertex   -4.795741e+002 1.395217e+002 9.912627e+002
      vertex   -6.313425e+001 5.716708e+001 1.059332e+003
      vertex   -5.516200e+001 4.873049e+001 1.051360e+003
    endloop
  endfacet
  facet normal 2.481781e-001 -7.788449e-001 -5.760279e-001
    outer loop
      vertex   -4.795741e+002 -1.416640e+002 9.912627e+002
      vertex   -5.516200e+001 -5.087278e+001 1.051360e+003
      vertex   -6.313425e+001 -5.930937e+001 1.059332e+003
    endloop
  endfacet
  facet normal 2.481781e-001 -8.649893e-001 -4.361206e-001
    outer loop
      vertex   -4.839301e+002 -1.582057e+002 1.016023e+003
      vertex   -6.313425e+001 -5.930937e+001 1.059332e+003
      vertex   -7.258620e+001 -6.678685e+001 1.068784e+003
    endloop
  endfacet
  facet normal 2.481781e-001 8.649893e-001 -4.361206e-001
    outer loop
      vertex   -4.839301e+002 1.560634e+002 1.016023e+003
      vertex   -7.258620e+001 6.464456e+001 1.068784e+003
      vertex   -6.313425e+001 5.716708e+001 1.059332e+003
    endloop
  endfacet
  facet normal 9.481322e-001 5.068172e-002 -3.138101e-001
    outer loop
      vertex   -4.769224e+001 -1.015024e+001 1.034609e+003
      vertex   -4.905032e+001 -8.228926e+000 1.030816e+003
      vertex   -4.961189e+001 -1.074076e+000 1.030275e+003
    endloop
  endfacet
  facet normal 8.879904e-001 -3.127347e-002 -4.587974e-001
    outer loop
      vertex   -4.769224e+001 -1.015024e+001 1.034609e+003
      vertex   -4.961189e+001 -1.074076e+000 1.030275e+003
      vertex   -4.961166e+001 -1.071159e+000 1.030275e+003
    endloop
  endfacet
  facet normal 9.822704e-001 1.712268e-001 -7.633007e-002
    outer loop
      vertex   -4.769224e+001 -1.015024e+001 1.034609e+003
      vertex   -4.961166e+001 -1.071159e+000 1.030275e+003
      vertex   -4.849157e+001 -1.071146e+000 1.044689e+003
    endloop
  endfacet
  facet normal 9.822659e-001 -1.712527e-001 -7.632942e-002
    outer loop
      vertex   -4.741949e+001 9.295645e+000 1.035227e+003
      vertex   -4.849157e+001 -1.071146e+000 1.044689e+003
      vertex   -4.961166e+001 -1.071159e+000 1.030275e+003
    endloop
  endfacet
  facet normal 9.479510e-001 -5.027446e-002 -3.144222e-001
    outer loop
      vertex   -4.741949e+001 9.295645e+000 1.035227e+003
      vertex   -4.961166e+001 -1.071159e+000 1.030275e+003
      vertex   -4.905705e+001 6.043904e+000 1.030810e+003
    endloop
  endfacet
  facet normal 9.569068e-001 -2.113035e-001 -1.991988e-001
    outer loop
      vertex   -4.741949e+001 9.295645e+000 1.035227e+003
      vertex   -4.905705e+001 6.043904e+000 1.030810e+003
      vertex   -4.802901e+001 9.768932e+000 1.031797e+003
    endloop
  endfacet
  facet normal 9.502659e-001 1.993881e-001 -2.392470e-001
    outer loop
      vertex   -4.769224e+001 -1.015024e+001 1.034609e+003
      vertex   -4.803123e+001 -1.191170e+001 1.031795e+003
      vertex   -4.905032e+001 -8.228926e+000 1.030816e+003
    endloop
  endfacet
  facet normal 9.502658e-001 1.993885e-001 -2.392472e-001
    outer loop
      vertex   -4.769224e+001 -1.015024e+001 1.034609e+003
      vertex   -4.627753e+001 -1.824920e+001 1.033478e+003
      vertex   -4.803123e+001 -1.191170e+001 1.031795e+003
    endloop
  endfacet
  facet normal 9.569082e-001 -2.112978e-001 -1.991982e-001
    outer loop
      vertex   -4.741949e+001 9.295645e+000 1.035227e+003
      vertex   -4.802901e+001 9.768932e+000 1.031797e+003
      vertex   -4.628490e+001 1.608862e+001 1.033471e+003
    endloop
  endfacet
  facet normal 8.727977e-001 -2.535444e-001 -4.170604e-001
    outer loop
      vertex   -4.741949e+001 9.295645e+000 1.035227e+003
      vertex   -4.628490e+001 1.608862e+001 1.033471e+003
      vertex   -4.541454e+001 1.772216e+001 1.034300e+003
    endloop
  endfacet
  facet normal 8.542581e-001 2.152748e-001 -4.731806e-001
    outer loop
      vertex   -4.769224e+001 -1.015024e+001 1.034609e+003
      vertex   -4.541605e+001 -1.986524e+001 1.034298e+003
      vertex   -4.627753e+001 -1.824920e+001 1.033478e+003
    endloop
  endfacet
  facet normal 8.775886e-001 4.789164e-001 2.184771e-002
    outer loop
      vertex   -4.541605e+001 -1.986524e+001 1.034298e+003
      vertex   -4.166819e+001 -2.689573e+001 1.037866e+003
      vertex   -4.420804e+001 -2.213130e+001 1.035448e+003
    endloop
  endfacet
  facet normal 9.717076e-001 2.294573e-001 -5.597892e-002
    outer loop
      vertex   -4.769224e+001 -1.015024e+001 1.034609e+003
      vertex   -4.504767e+001 -1.973050e+001 1.041245e+003
      vertex   -4.541605e+001 -1.986524e+001 1.034298e+003
    endloop
  endfacet
  facet normal 8.925780e-001 4.474007e-001 -5.601012e-002
    outer loop
      vertex   -4.504767e+001 -1.973050e+001 1.041245e+003
      vertex   -4.166819e+001 -2.689573e+001 1.037866e+003
      vertex   -4.541605e+001 -1.986524e+001 1.034298e+003
    endloop
  endfacet
  facet normal 8.926343e-001 -4.473175e-001 -5.577719e-002
    outer loop
      vertex   -4.408435e+001 2.001307e+001 1.037215e+003
      vertex   -4.504767e+001 1.758821e+001 1.041245e+003
      vertex   -4.541454e+001 1.772216e+001 1.034300e+003
    endloop
  endfacet
  facet normal 9.699262e-001 -2.369162e-001 -5.580201e-002
    outer loop
      vertex   -4.741949e+001 9.295645e+000 1.035227e+003
      vertex   -4.541454e+001 1.772216e+001 1.034300e+003
      vertex   -4.504767e+001 1.758821e+001 1.041245e+003
    endloop
  endfacet
  facet normal 8.926341e-001 -4.473178e-001 -5.577691e-002
    outer loop
      vertex   -4.408435e+001 2.001307e+001 1.037215e+003
      vertex   -4.541454e+001 1.772216e+001 1.034300e+003
      vertex   -4.420701e+001 1.998849e+001 1.035449e+003
    endloop
  endfacet
  facet normal 9.747807e-001 1.986731e-001 -1.016445e-001
    outer loop
      vertex   -4.769224e+001 -1.015024e+001 1.034609e+003
      vertex   -4.849157e+001 -1.071146e+000 1.044689e+003
      vertex   -4.504767e+001 -1.973050e+001 1.041245e+003
    endloop
  endfacet
  facet normal 9.738155e-001 -1.997647e-001 -1.085236e-001
    outer loop
      vertex   -4.741949e+001 9.295645e+000 1.035227e+003
      vertex   -4.504767e+001 1.758821e+001 1.041245e+003
      vertex   -4.849157e+001 -1.071146e+000 1.044689e+003
    endloop
  endfacet
  facet normal 2.481780e-001 9.262526e-001 -2.836614e-001
    outer loop
      vertex   -4.890170e+002 1.684310e+002 1.043343e+003
      vertex   -9.000000e+002 2.761313e+002 1.035449e+003
      vertex   -8.348183e+001 7.090067e+001 1.079679e+003
    endloop
  endfacet
  facet normal 2.481780e-001 -9.608683e-001 -1.230442e-001
    outer loop
      vertex   -4.948041e+002 -1.783689e+002 1.072554e+003
      vertex   -9.000000e+002 -2.782735e+002 1.035449e+003
      vertex   -8.348183e+001 -7.304295e+001 1.079679e+003
    endloop
  endfacet
  facet normal 2.481780e-001 9.608683e-001 -1.230441e-001
    outer loop
      vertex   -4.948041e+002 1.762267e+002 1.072554e+003
      vertex   -9.000000e+002 2.761313e+002 1.035449e+003
      vertex   -9.000000e+002 2.822404e+002 1.083156e+003
    endloop
  endfacet
  facet normal 2.481780e-001 -9.608683e-001 -1.230441e-001
    outer loop
      vertex   -4.948041e+002 -1.783689e+002 1.072554e+003
      vertex   -9.000000e+002 -2.843826e+002 1.083156e+003
      vertex   -9.000000e+002 -2.782735e+002 1.035449e+003
    endloop
  endfacet
  facet normal -1.000000e+000 0.000000e+000 0.000000e+000
    outer loop
      vertex   -9.000000e+002 -1.071145e+000 1.095191e+003
      vertex   -9.000000e+002 2.822404e+002 1.083156e+003
      vertex   -9.000000e+002 2.761313e+002 1.035449e+003
    endloop
  endfacet
  facet normal -1.000000e+000 0.000000e+000 0.000000e+000
    outer loop
      vertex   -9.000000e+002 -1.071145e+000 1.095191e+003
      vertex   -9.000000e+002 -2.782735e+002 1.035449e+003
      vertex   -9.000000e+002 -2.843826e+002 1.083156e+003
    endloop
  endfacet
  facet normal 2.481780e-001 -9.262526e-001 -2.836614e-001
    outer loop
      vertex   -4.890170e+002 -1.705733e+002 1.043343e+003
      vertex   -8.348183e+001 -7.304295e+001 1.079679e+003
      vertex   -9.000000e+002 -2.782735e+002 1.035449e+003
    endloop
  endfacet
  facet normal 2.481780e-001 9.608683e-001 -1.230441e-001
    outer loop
      vertex   -4.948041e+002 1.762267e+002 1.072554e+003
      vertex   -8.348183e+001 7.090067e+001 1.079679e+003
      vertex   -9.000000e+002 2.761313e+002 1.035449e+003
    endloop
  endfacet
  facet normal 8.926343e-001 -4.473175e-001 -5.577692e-002
    outer loop
      vertex   -4.408435e+001 2.001307e+001 1.037215e+003
      vertex   -4.420701e+001 1.998849e+001 1.035449e+003
      vertex   -4.166819e+001 2.475344e+001 1.037866e+003
    endloop
  endfacet
  facet normal 8.926343e-001 -4.473174e-001 -5.577714e-002
    outer loop
      vertex   -4.408435e+001 2.001307e+001 1.037215e+003
      vertex   -4.166819e+001 2.475344e+001 1.037866e+003
      vertex   -4.504767e+001 1.758821e+001 1.041245e+003
    endloop
  endfacet
  facet normal 7.071067e-001 8.163686e-006 7.071069e-001
    outer loop
      vertex   -4.504767e+001 -1.973050e+001 1.041245e+003
      vertex   -1.989803e+002 -2.710582e+001 1.195178e+003
      vertex   -4.166819e+001 -2.689573e+001 1.037866e+003
    endloop
  endfacet
  facet normal 7.071067e-001 1.104554e-005 7.071069e-001
    outer loop
      vertex   -4.365728e+001 2.984121e+001 1.039855e+003
      vertex   -1.989803e+002 2.496352e+001 1.195178e+003
      vertex   -4.166819e+001 2.475344e+001 1.037866e+003
    endloop
  endfacet
  facet normal 7.071067e-001 2.566136e-006 7.071069e-001
    outer loop
      vertex   -1.989803e+002 2.496352e+001 1.195178e+003
      vertex   -2.029620e+002 7.777925e+000 1.199160e+003
      vertex   -4.166819e+001 2.475344e+001 1.037866e+003
    endloop
  endfacet
  facet normal 7.071073e-001 -8.731229e-006 7.071063e-001
    outer loop
      vertex   -4.166819e+001 2.475344e+001 1.037866e+003
      vertex   -2.029620e+002 7.777925e+000 1.199160e+003
      vertex   -4.504767e+001 1.758821e+001 1.041245e+003
    endloop
  endfacet
  facet normal 7.071067e-001 -1.104554e-005 7.071069e-001
    outer loop
      vertex   -4.166819e+001 -2.689573e+001 1.037866e+003
      vertex   -1.989803e+002 -2.710582e+001 1.195178e+003
      vertex   -4.365728e+001 -3.198351e+001 1.039855e+003
    endloop
  endfacet
  facet normal 7.071068e-001 6.175618e-008 7.071067e-001
    outer loop
      vertex   -4.867389e+001 3.955866e+001 1.044871e+003
      vertex   -1.989803e+002 2.496352e+001 1.195178e+003
      vertex   -4.365728e+001 2.984121e+001 1.039855e+003
    endloop
  endfacet
  facet normal 7.071068e-001 -1.334429e-006 7.071067e-001
    outer loop
      vertex   -1.989803e+002 -2.710582e+001 1.195178e+003
      vertex   -1.913558e+002 -4.282177e+001 1.187553e+003
      vertex   -4.365728e+001 -3.198351e+001 1.039855e+003
    endloop
  endfacet
  facet normal 7.071068e-001 9.799378e-009 7.071068e-001
    outer loop
      vertex   -4.365728e+001 -3.198351e+001 1.039855e+003
      vertex   -1.913558e+002 -4.282177e+001 1.187553e+003
      vertex   -4.867389e+001 -4.170095e+001 1.044871e+003
    endloop
  endfacet
  facet normal 7.071069e-001 -2.409485e-006 7.071067e-001
    outer loop
      vertex   -4.849157e+001 -1.071146e+000 1.044689e+003
      vertex   -2.029620e+002 -9.920218e+000 1.199160e+003
      vertex   -4.504767e+001 -1.973050e+001 1.041245e+003
    endloop
  endfacet
  facet normal 7.071069e-001 2.409485e-006 7.071067e-001
    outer loop
      vertex   -4.504767e+001 1.758821e+001 1.041245e+003
      vertex   -2.029620e+002 7.777925e+000 1.199160e+003
      vertex   -4.849157e+001 -1.071146e+000 1.044689e+003
    endloop
  endfacet
  facet normal 7.071069e-001 -2.451615e-006 7.071067e-001
    outer loop
      vertex   -2.029620e+002 -9.920218e+000 1.199160e+003
      vertex   -1.989803e+002 -2.710582e+001 1.195178e+003
      vertex   -4.504767e+001 -1.973050e+001 1.041245e+003
    endloop
  endfacet
  facet normal 2.481780e-001 9.262524e-001 -2.836619e-001
    outer loop
      vertex   -4.890170e+002 1.684310e+002 1.043343e+003
      vertex   -8.348183e+001 7.090067e+001 1.079679e+003
      vertex   -7.258620e+001 6.464456e+001 1.068784e+003
    endloop
  endfacet
  facet normal 2.481780e-001 -9.262524e-001 -2.836619e-001
    outer loop
      vertex   -4.890170e+002 -1.705733e+002 1.043343e+003
      vertex   -7.258620e+001 -6.678685e+001 1.068784e+003
      vertex   -8.348183e+001 -7.304295e+001 1.079679e+003
    endloop
  endfacet
  facet normal 7.071068e-001 0.000000e+000 7.071067e-001
    outer loop
      vertex   -2.029620e+002 7.777925e+000 1.199160e+003
      vertex   -2.029620e+002 -9.920218e+000 1.199160e+003
      vertex   -4.849157e+001 -1.071146e+000 1.044689e+003
    endloop
  endfacet
  facet normal 7.071068e-001 -3.562322e-006 7.071068e-001
    outer loop
      vertex   -5.516200e+001 4.873049e+001 1.051360e+003
      vertex   -1.913558e+002 4.067949e+001 1.187553e+003
      vertex   -4.867389e+001 3.955866e+001 1.044871e+003
    endloop
  endfacet
  facet normal 7.071068e-001 1.376998e-006 7.071068e-001
    outer loop
      vertex   -1.913558e+002 4.067949e+001 1.187553e+003
      vertex   -1.989803e+002 2.496352e+001 1.195178e+003
      vertex   -4.867389e+001 3.955866e+001 1.044871e+003
    endloop
  endfacet
  facet normal 7.071068e-001 3.562322e-006 7.071068e-001
    outer loop
      vertex   -4.867389e+001 -4.170095e+001 1.044871e+003
      vertex   -1.913558e+002 -4.282177e+001 1.187553e+003
      vertex   -5.516200e+001 -5.087278e+001 1.051360e+003
    endloop
  endfacet
  facet normal 7.071066e-001 1.893513e-006 7.071070e-001
    outer loop
      vertex   -1.807018e+002 5.415437e+001 1.176899e+003
      vertex   -1.913558e+002 4.067949e+001 1.187553e+003
      vertex   -5.516200e+001 4.873049e+001 1.051360e+003
    endloop
  endfacet
  facet normal 7.071065e-001 -3.777878e-006 7.071071e-001
    outer loop
      vertex   -6.313425e+001 5.716708e+001 1.059332e+003
      vertex   -1.807018e+002 5.415437e+001 1.176899e+003
      vertex   -5.516200e+001 4.873049e+001 1.051360e+003
    endloop
  endfacet
  facet normal 7.071065e-001 3.777878e-006 7.071071e-001
    outer loop
      vertex   -5.516200e+001 -5.087278e+001 1.051360e+003
      vertex   -1.807018e+002 -5.629665e+001 1.176899e+003
      vertex   -6.313425e+001 -5.930937e+001 1.059332e+003
    endloop
  endfacet
  facet normal 7.071066e-001 -1.893513e-006 7.071070e-001
    outer loop
      vertex   -1.913558e+002 -4.282177e+001 1.187553e+003
      vertex   -1.807018e+002 -5.629665e+001 1.176899e+003
      vertex   -5.516200e+001 -5.087278e+001 1.051360e+003
    endloop
  endfacet
  facet normal 7.071065e-001 5.348415e-006 7.071071e-001
    outer loop
      vertex   -1.807018e+002 -5.629665e+001 1.176899e+003
      vertex   -1.677980e+002 -6.701541e+001 1.163996e+003
      vertex   -6.313425e+001 -5.930937e+001 1.059332e+003
    endloop
  endfacet
  facet normal 7.071069e-001 -4.919368e-006 7.071067e-001
    outer loop
      vertex   -6.313425e+001 -5.930937e+001 1.059332e+003
      vertex   -1.677980e+002 -6.701541e+001 1.163996e+003
      vertex   -7.258620e+001 -6.678685e+001 1.068784e+003
    endloop
  endfacet
  facet normal 7.071064e-001 3.671591e-006 7.071072e-001
    outer loop
      vertex   -7.258620e+001 6.464456e+001 1.068784e+003
      vertex   -1.807018e+002 5.415437e+001 1.176899e+003
      vertex   -6.313425e+001 5.716708e+001 1.059332e+003
    endloop
  endfacet
  facet normal 7.071069e-001 2.972854e-007 7.071067e-001
    outer loop
      vertex   -8.348183e+001 7.090067e+001 1.079679e+003
      vertex   -1.677980e+002 6.487312e+001 1.163996e+003
      vertex   -7.258620e+001 6.464456e+001 1.068784e+003
    endloop
  endfacet
  facet normal 7.071069e-001 -6.226291e-006 7.071067e-001
    outer loop
      vertex   -1.677980e+002 6.487312e+001 1.163996e+003
      vertex   -1.807018e+002 5.415437e+001 1.176899e+003
      vertex   -7.258620e+001 6.464456e+001 1.068784e+003
    endloop
  endfacet
  facet normal 7.071069e-001 -2.972854e-007 7.071067e-001
    outer loop
      vertex   -7.258620e+001 -6.678685e+001 1.068784e+003
      vertex   -1.677980e+002 -6.701541e+001 1.163996e+003
      vertex   -8.348183e+001 -7.304295e+001 1.079679e+003
    endloop
  endfacet
  facet normal 2.481780e-001 -9.608683e-001 -1.230442e-001
    outer loop
      vertex   -4.948041e+002 -1.783689e+002 1.072554e+003
      vertex   -8.348183e+001 -7.304295e+001 1.079679e+003
      vertex   -9.573454e+001 -7.777666e+001 1.091932e+003
    endloop
  endfacet
  facet normal 2.481780e-001 -9.608683e-001 -1.230442e-001
    outer loop
      vertex   -4.948041e+002 -1.783689e+002 1.072554e+003
      vertex   -9.573454e+001 -7.777666e+001 1.091932e+003
      vertex   -9.000000e+002 -2.843826e+002 1.083156e+003
    endloop
  endfacet
  facet normal 2.481780e-001 9.608682e-001 -1.230442e-001
    outer loop
      vertex   -4.948041e+002 1.762267e+002 1.072554e+003
      vertex   -9.573454e+001 7.563438e+001 1.091932e+003
      vertex   -8.348183e+001 7.090067e+001 1.079679e+003
    endloop
  endfacet
  facet normal 2.481780e-001 9.608683e-001 -1.230441e-001
    outer loop
      vertex   -4.948041e+002 1.762267e+002 1.072554e+003
      vertex   -9.000000e+002 2.822404e+002 1.083156e+003
      vertex   -9.573454e+001 7.563438e+001 1.091932e+003
    endloop
  endfacet
  facet normal 7.071067e-001 1.792897e-006 7.071069e-001
    outer loop
      vertex   -9.573454e+001 7.563438e+001 1.091932e+003
      vertex   -1.534736e+002 7.259149e+001 1.149671e+003
      vertex   -8.348183e+001 7.090067e+001 1.079679e+003
    endloop
  endfacet
  facet normal 7.071067e-001 -4.424509e-006 7.071068e-001
    outer loop
      vertex   -1.677980e+002 -6.701541e+001 1.163996e+003
      vertex   -1.534736e+002 -7.473378e+001 1.149671e+003
      vertex   -8.348183e+001 -7.304295e+001 1.079679e+003
    endloop
  endfacet
  facet normal 7.071067e-001 -1.792897e-006 7.071069e-001
    outer loop
      vertex   -8.348183e+001 -7.304295e+001 1.079679e+003
      vertex   -1.534736e+002 -7.473378e+001 1.149671e+003
      vertex   -9.573454e+001 -7.777666e+001 1.091932e+003
    endloop
  endfacet
  facet normal 7.071067e-001 4.424509e-006 7.071068e-001
    outer loop
      vertex   -1.534736e+002 7.259149e+001 1.149671e+003
      vertex   -1.677980e+002 6.487312e+001 1.163996e+003
      vertex   -8.348183e+001 7.090067e+001 1.079679e+003
    endloop
  endfacet
  facet normal -1.000000e+000 0.000000e+000 0.000000e+000
    outer loop
      vertex   -9.000000e+002 -1.071145e+000 1.095191e+003
      vertex   -9.000000e+002 2.801991e+002 1.131209e+003
      vertex   -9.000000e+002 2.822404e+002 1.083156e+003
    endloop
  endfacet
  facet normal 2.481780e-001 -9.678416e-001 4.111335e-002
    outer loop
      vertex   -5.012296e+002 -1.812887e+002 1.102919e+003
      vertex   -9.000000e+002 -2.843826e+002 1.083156e+003
      vertex   -9.573454e+001 -7.777666e+001 1.091932e+003
    endloop
  endfacet
  facet normal 2.481780e-001 -9.678416e-001 4.111329e-002
    outer loop
      vertex   -5.012296e+002 -1.812887e+002 1.102919e+003
      vertex   -9.000000e+002 -2.823414e+002 1.131209e+003
      vertex   -9.000000e+002 -2.843826e+002 1.083156e+003
    endloop
  endfacet
  facet normal 2.481780e-001 9.678416e-001 4.111335e-002
    outer loop
      vertex   -5.012296e+002 1.791464e+002 1.102919e+003
      vertex   -9.573454e+001 7.563438e+001 1.091932e+003
      vertex   -9.000000e+002 2.822404e+002 1.083156e+003
    endloop
  endfacet
  facet normal -1.000000e+000 0.000000e+000 0.000000e+000
    outer loop
      vertex   -9.000000e+002 -1.071145e+000 1.095191e+003
      vertex   -9.000000e+002 -2.843826e+002 1.083156e+003
      vertex   -9.000000e+002 -2.823414e+002 1.131209e+003
    endloop
  endfacet
  facet normal 2.481780e-001 9.678416e-001 4.111329e-002
    outer loop
      vertex   -5.012296e+002 1.791464e+002 1.102919e+003
      vertex   -9.000000e+002 2.822404e+002 1.083156e+003
      vertex   -9.000000e+002 2.801991e+002 1.131209e+003
    endloop
  endfacet
  facet normal 7.071067e-001 1.388856e-005 7.071069e-001
    outer loop
      vertex   -9.573454e+001 -7.777666e+001 1.091932e+003
      vertex   -1.385086e+002 -7.944569e+001 1.134706e+003
      vertex   -1.091839e+002 -8.065409e+001 1.105382e+003
    endloop
  endfacet
  facet normal 7.071069e-001 5.143946e-006 7.071067e-001
    outer loop
      vertex   -1.534736e+002 -7.473378e+001 1.149671e+003
      vertex   -1.385086e+002 -7.944569e+001 1.134706e+003
      vertex   -9.573454e+001 -7.777666e+001 1.091932e+003
    endloop
  endfacet
  facet normal 2.481780e-001 9.678416e-001 4.111358e-002
    outer loop
      vertex   -5.012296e+002 1.791464e+002 1.102919e+003
      vertex   -1.091839e+002 7.851180e+001 1.105382e+003
      vertex   -9.573454e+001 7.563438e+001 1.091932e+003
    endloop
  endfacet
  facet normal 7.071069e-001 -5.143946e-006 7.071067e-001
    outer loop
      vertex   -1.385086e+002 7.730340e+001 1.134706e+003
      vertex   -1.534736e+002 7.259149e+001 1.149671e+003
      vertex   -9.573454e+001 7.563438e+001 1.091932e+003
    endloop
  endfacet
  facet normal 2.481780e-001 -9.678416e-001 4.111356e-002
    outer loop
      vertex   -5.012296e+002 -1.812887e+002 1.102919e+003
      vertex   -9.573454e+001 -7.777666e+001 1.091932e+003
      vertex   -1.091839e+002 -8.065409e+001 1.105382e+003
    endloop
  endfacet
  facet normal 7.071067e-001 -1.388856e-005 7.071069e-001
    outer loop
      vertex   -1.091839e+002 7.851180e+001 1.105382e+003
      vertex   -1.385086e+002 7.730340e+001 1.134706e+003
      vertex   -9.573454e+001 7.563438e+001 1.091932e+003
    endloop
  endfacet
  facet normal -1.000000e+000 0.000000e+000 0.000000e+000
    outer loop
      vertex   -9.000000e+002 -1.071145e+000 1.095191e+003
      vertex   -9.000000e+002 -2.542755e+002 1.222854e+003
      vertex   -9.000000e+002 -2.290582e+002 1.263809e+003
    endloop
  endfacet
  facet normal -1.000000e+000 0.000000e+000 0.000000e+000
    outer loop
      vertex   -9.000000e+002 -1.071145e+000 1.095191e+003
      vertex   -9.000000e+002 2.269159e+002 1.263809e+003
      vertex   -9.000000e+002 2.521331e+002 1.222854e+003
    endloop
  endfacet
  facet normal -1.000000e+000 0.000000e+000 0.000000e+000
    outer loop
      vertex   -9.000000e+002 -1.071145e+000 1.095191e+003
      vertex   -9.000000e+002 -2.290582e+002 1.263809e+003
      vertex   -9.000000e+002 -1.972822e+002 1.299913e+003
    endloop
  endfacet
  facet normal -1.000000e+000 0.000000e+000 0.000000e+000
    outer loop
      vertex   -9.000000e+002 -1.071145e+000 1.095191e+003
      vertex   -9.000000e+002 2.521331e+002 1.222854e+003
      vertex   -9.000000e+002 2.700662e+002 1.178225e+003
    endloop
  endfacet
  facet normal -1.000000e+000 0.000000e+000 0.000000e+000
    outer loop
      vertex   -9.000000e+002 -1.071145e+000 1.095191e+003
      vertex   -9.000000e+002 -2.722085e+002 1.178225e+003
      vertex   -9.000000e+002 -2.542755e+002 1.222854e+003
    endloop
  endfacet
  facet normal -1.000000e+000 0.000000e+000 0.000000e+000
    outer loop
      vertex   -9.000000e+002 -1.071145e+000 1.095191e+003
      vertex   -9.000000e+002 1.951399e+002 1.299913e+003
      vertex   -9.000000e+002 2.269159e+002 1.263809e+003
    endloop
  endfacet
  facet normal -1.000000e+000 0.000000e+000 0.000000e+000
    outer loop
      vertex   -9.000000e+002 -1.071145e+000 1.095191e+003
      vertex   -9.000000e+002 2.700662e+002 1.178225e+003
      vertex   -9.000000e+002 2.801991e+002 1.131209e+003
    endloop
  endfacet
  facet normal -1.000000e+000 0.000000e+000 0.000000e+000
    outer loop
      vertex   -9.000000e+002 -1.071145e+000 1.095191e+003
      vertex   -9.000000e+002 -1.972822e+002 1.299913e+003
      vertex   -9.000000e+002 -1.598615e+002 1.330129e+003
    endloop
  endfacet
  facet normal -1.000000e+000 0.000000e+000 0.000000e+000
    outer loop
      vertex   -9.000000e+002 -1.071145e+000 1.095191e+003
      vertex   -9.000000e+002 1.577192e+002 1.330129e+003
      vertex   -9.000000e+002 1.951399e+002 1.299913e+003
    endloop
  endfacet
  facet normal -1.000000e+000 0.000000e+000 0.000000e+000
    outer loop
      vertex   -9.000000e+002 -1.071145e+000 1.095191e+003
      vertex   -9.000000e+002 -2.823414e+002 1.131209e+003
      vertex   -9.000000e+002 -2.722085e+002 1.178225e+003
    endloop
  endfacet
  facet normal -1.000000e+000 0.000000e+000 0.000000e+000
    outer loop
      vertex   -9.000000e+002 -1.071145e+000 1.095191e+003
      vertex   -9.000000e+002 -7.252380e+001 1.369608e+003
      vertex   -9.000000e+002 -2.511931e+001 1.377736e+003
    endloop
  endfacet
  facet normal -1.000000e+000 0.000000e+000 0.000000e+000
    outer loop
      vertex   -9.000000e+002 -1.071145e+000 1.095191e+003
      vertex   -9.000000e+002 -1.598615e+002 1.330129e+003
      vertex   -9.000000e+002 -1.178727e+002 1.353585e+003
    endloop
  endfacet
  facet normal -1.000000e+000 0.000000e+000 0.000000e+000
    outer loop
      vertex   -9.000000e+002 -1.071145e+000 1.095191e+003
      vertex   -9.000000e+002 1.157305e+002 1.353585e+003
      vertex   -9.000000e+002 1.577192e+002 1.330129e+003
    endloop
  endfacet
  facet normal -1.000000e+000 0.000000e+000 0.000000e+000
    outer loop
      vertex   -9.000000e+002 -1.071145e+000 1.095191e+003
      vertex   -9.000000e+002 7.038152e+001 1.369608e+003
      vertex   -9.000000e+002 1.157305e+002 1.353585e+003
    endloop
  endfacet
  facet normal -1.000000e+000 0.000000e+000 0.000000e+000
    outer loop
      vertex   -9.000000e+002 -1.071145e+000 1.095191e+003
      vertex   -9.000000e+002 -1.178727e+002 1.353585e+003
      vertex   -9.000000e+002 -7.252380e+001 1.369608e+003
    endloop
  endfacet
  facet normal -1.000000e+000 0.000000e+000 0.000000e+000
    outer loop
      vertex   -9.000000e+002 -1.071145e+000 1.095191e+003
      vertex   -9.000000e+002 2.297702e+001 1.377736e+003
      vertex   -9.000000e+002 7.038152e+001 1.369608e+003
    endloop
  endfacet
  facet normal -1.000000e+000 0.000000e+000 0.000000e+000
    outer loop
      vertex   -9.000000e+002 -1.071145e+000 1.095191e+003
      vertex   -9.000000e+002 -2.511931e+001 1.377736e+003
      vertex   -9.000000e+002 2.297702e+001 1.377736e+003
    endloop
  endfacet
  facet normal 2.481781e-001 9.678416e-001 4.111335e-002
    outer loop
      vertex   -5.012296e+002 1.791464e+002 1.102919e+003
      vertex   -9.000000e+002 2.801991e+002 1.131209e+003
      vertex   -1.091839e+002 7.851180e+001 1.105382e+003
    endloop
  endfacet
  facet normal 2.481780e-001 -9.678416e-001 4.111335e-002
    outer loop
      vertex   -5.012296e+002 -1.812887e+002 1.102919e+003
      vertex   -1.091839e+002 -8.065409e+001 1.105382e+003
      vertex   -9.000000e+002 -2.823414e+002 1.131209e+003
    endloop
  endfacet
  facet normal 2.481780e-001 9.469719e-001 2.040881e-001
    outer loop
      vertex   -5.081885e+002 1.769897e+002 1.133646e+003
      vertex   -1.235701e+002 7.918161e+001 1.119768e+003
      vertex   -1.091839e+002 7.851180e+001 1.105382e+003
    endloop
  endfacet
  facet normal 7.071063e-001 4.433631e-006 7.071072e-001
    outer loop
      vertex   -1.235701e+002 7.918161e+001 1.119768e+003
      vertex   -1.385086e+002 7.730340e+001 1.134706e+003
      vertex   -1.091839e+002 7.851180e+001 1.105382e+003
    endloop
  endfacet
  facet normal 2.481780e-001 -9.469719e-001 2.040880e-001
    outer loop
      vertex   -5.081885e+002 -1.791320e+002 1.133646e+003
      vertex   -9.000000e+002 -2.823414e+002 1.131209e+003
      vertex   -1.091839e+002 -8.065409e+001 1.105382e+003
    endloop
  endfacet
  facet normal 7.071063e-001 -4.433631e-006 7.071072e-001
    outer loop
      vertex   -1.385086e+002 -7.944569e+001 1.134706e+003
      vertex   -1.235701e+002 -8.132390e+001 1.119768e+003
      vertex   -1.091839e+002 -8.065409e+001 1.105382e+003
    endloop
  endfacet
  facet normal 2.481780e-001 9.469719e-001 2.040880e-001
    outer loop
      vertex   -5.081885e+002 1.769897e+002 1.133646e+003
      vertex   -1.091839e+002 7.851180e+001 1.105382e+003
      vertex   -9.000000e+002 2.801991e+002 1.131209e+003
    endloop
  endfacet
  facet normal 2.481780e-001 -9.469719e-001 2.040881e-001
    outer loop
      vertex   -5.081885e+002 -1.791320e+002 1.133646e+003
      vertex   -1.091839e+002 -8.065409e+001 1.105382e+003
      vertex   -1.235701e+002 -8.132390e+001 1.119768e+003
    endloop
  endfacet
  facet normal 2.481780e-001 9.469719e-001 2.040880e-001
    outer loop
      vertex   -5.081885e+002 1.769897e+002 1.133646e+003
      vertex   -9.000000e+002 2.700662e+002 1.178225e+003
      vertex   -1.235701e+002 7.918161e+001 1.119768e+003
    endloop
  endfacet
  facet normal 2.481780e-001 8.988594e-001 3.611917e-001
    outer loop
      vertex   -5.155197e+002 1.696711e+002 1.163888e+003
      vertex   -1.235701e+002 7.918161e+001 1.119768e+003
      vertex   -9.000000e+002 2.700662e+002 1.178225e+003
    endloop
  endfacet
  facet normal 2.481780e-001 8.988594e-001 3.611916e-001
    outer loop
      vertex   -5.155197e+002 1.696711e+002 1.163888e+003
      vertex   -1.385086e+002 7.730340e+001 1.134706e+003
      vertex   -1.235701e+002 7.918161e+001 1.119768e+003
    endloop
  endfacet
  facet normal 2.481780e-001 -8.988595e-001 3.611913e-001
    outer loop
      vertex   -5.155197e+002 -1.718134e+002 1.163888e+003
      vertex   -9.000000e+002 -2.722085e+002 1.178225e+003
      vertex   -1.235701e+002 -8.132390e+001 1.119768e+003
    endloop
  endfacet
  facet normal 2.481780e-001 -8.988594e-001 3.611916e-001
    outer loop
      vertex   -5.155197e+002 -1.718134e+002 1.163888e+003
      vertex   -1.235701e+002 -8.132390e+001 1.119768e+003
      vertex   -1.385086e+002 -7.944569e+001 1.134706e+003
    endloop
  endfacet
  facet normal 2.481780e-001 -9.469719e-001 2.040880e-001
    outer loop
      vertex   -5.081885e+002 -1.791320e+002 1.133646e+003
      vertex   -1.235701e+002 -8.132390e+001 1.119768e+003
      vertex   -9.000000e+002 -2.722085e+002 1.178225e+003
    endloop
  endfacet
  facet normal 2.481780e-001 9.469719e-001 2.040880e-001
    outer loop
      vertex   -5.081885e+002 1.769897e+002 1.133646e+003
      vertex   -9.000000e+002 2.801991e+002 1.131209e+003
      vertex   -9.000000e+002 2.700662e+002 1.178225e+003
    endloop
  endfacet
  facet normal 2.481780e-001 -9.469719e-001 2.040880e-001
    outer loop
      vertex   -5.081885e+002 -1.791320e+002 1.133646e+003
      vertex   -9.000000e+002 -2.722085e+002 1.178225e+003
      vertex   -9.000000e+002 -2.823414e+002 1.131209e+003
    endloop
  endfacet
  facet normal 2.481780e-001 8.248886e-001 5.079039e-001
    outer loop
      vertex   -5.229955e+002 1.572360e+002 1.192760e+003
      vertex   -1.385086e+002 7.730340e+001 1.134706e+003
      vertex   -9.000000e+002 2.521331e+002 1.222854e+003
    endloop
  endfacet
  facet normal 2.481780e-001 8.988594e-001 3.611917e-001
    outer loop
      vertex   -5.155197e+002 1.696711e+002 1.163888e+003
      vertex   -9.000000e+002 2.521331e+002 1.222854e+003
      vertex   -1.385086e+002 7.730340e+001 1.134706e+003
    endloop
  endfacet
  facet normal 2.481780e-001 -8.988595e-001 3.611913e-001
    outer loop
      vertex   -5.155197e+002 -1.718134e+002 1.163888e+003
      vertex   -1.385086e+002 -7.944569e+001 1.134706e+003
      vertex   -9.000000e+002 -2.542755e+002 1.222854e+003
    endloop
  endfacet
  facet normal 2.481781e-001 -8.248880e-001 5.079049e-001
    outer loop
      vertex   -5.229955e+002 -1.593783e+002 1.192760e+003
      vertex   -1.385086e+002 -7.944569e+001 1.134706e+003
      vertex   -1.534736e+002 -7.473378e+001 1.149671e+003
    endloop
  endfacet
  facet normal 2.481781e-001 8.248880e-001 5.079049e-001
    outer loop
      vertex   -5.229955e+002 1.572360e+002 1.192760e+003
      vertex   -1.534736e+002 7.259149e+001 1.149671e+003
      vertex   -1.385086e+002 7.730340e+001 1.134706e+003
    endloop
  endfacet
  facet normal 2.481781e-001 -8.248886e-001 5.079039e-001
    outer loop
      vertex   -5.229955e+002 -1.593783e+002 1.192760e+003
      vertex   -9.000000e+002 -2.542755e+002 1.222854e+003
      vertex   -1.385086e+002 -7.944569e+001 1.134706e+003
    endloop
  endfacet
  facet normal 2.481781e-001 8.248886e-001 5.079039e-001
    outer loop
      vertex   -5.229955e+002 1.572360e+002 1.192760e+003
      vertex   -9.000000e+002 2.269159e+002 1.263809e+003
      vertex   -1.534736e+002 7.259149e+001 1.149671e+003
    endloop
  endfacet
  facet normal 2.481781e-001 7.271867e-001 6.400055e-001
    outer loop
      vertex   -5.303179e+002 1.398801e+002 1.219347e+003
      vertex   -1.534736e+002 7.259149e+001 1.149671e+003
      vertex   -9.000000e+002 2.269159e+002 1.263809e+003
    endloop
  endfacet
  facet normal 2.481780e-001 7.271882e-001 6.400039e-001
    outer loop
      vertex   -5.303179e+002 1.398801e+002 1.219347e+003
      vertex   -1.677980e+002 6.487312e+001 1.163996e+003
      vertex   -1.534736e+002 7.259149e+001 1.149671e+003
    endloop
  endfacet
  facet normal 2.481781e-001 -8.248886e-001 5.079039e-001
    outer loop
      vertex   -5.229955e+002 -1.593783e+002 1.192760e+003
      vertex   -1.534736e+002 -7.473378e+001 1.149671e+003
      vertex   -9.000000e+002 -2.290582e+002 1.263809e+003
    endloop
  endfacet
  facet normal 2.481781e-001 -7.271867e-001 6.400055e-001
    outer loop
      vertex   -5.303179e+002 -1.420224e+002 1.219347e+003
      vertex   -9.000000e+002 -2.290582e+002 1.263809e+003
      vertex   -1.534736e+002 -7.473378e+001 1.149671e+003
    endloop
  endfacet
  facet normal 2.481781e-001 -7.271882e-001 6.400039e-001
    outer loop
      vertex   -5.303179e+002 -1.420224e+002 1.219347e+003
      vertex   -1.534736e+002 -7.473378e+001 1.149671e+003
      vertex   -1.677980e+002 -6.701541e+001 1.163996e+003
    endloop
  endfacet
  facet normal 2.481780e-001 -8.988596e-001 3.611912e-001
    outer loop
      vertex   -5.155197e+002 -1.718134e+002 1.163888e+003
      vertex   -9.000000e+002 -2.542755e+002 1.222854e+003
      vertex   -9.000000e+002 -2.722085e+002 1.178225e+003
    endloop
  endfacet
  facet normal 2.481780e-001 8.988594e-001 3.611918e-001
    outer loop
      vertex   -5.155197e+002 1.696711e+002 1.163888e+003
      vertex   -9.000000e+002 2.700662e+002 1.178225e+003
      vertex   -9.000000e+002 2.521331e+002 1.222854e+003
    endloop
  endfacet
  facet normal 2.481780e-001 -6.085626e-001 7.536970e-001
    outer loop
      vertex   -5.371249e+002 -1.201139e+002 1.242734e+003
      vertex   -1.677980e+002 -6.701541e+001 1.163996e+003
      vertex   -1.807018e+002 -5.629665e+001 1.176899e+003
    endloop
  endfacet
  facet normal 2.481780e-001 6.085652e-001 7.536950e-001
    outer loop
      vertex   -5.371249e+002 1.179716e+002 1.242734e+003
      vertex   -1.677980e+002 6.487312e+001 1.163996e+003
      vertex   -9.000000e+002 1.951399e+002 1.299913e+003
    endloop
  endfacet
  facet normal 2.481780e-001 7.271868e-001 6.400055e-001
    outer loop
      vertex   -5.303179e+002 1.398801e+002 1.219347e+003
      vertex   -9.000000e+002 1.951399e+002 1.299913e+003
      vertex   -1.677980e+002 6.487312e+001 1.163996e+003
    endloop
  endfacet
  facet normal 2.481780e-001 -6.085652e-001 7.536950e-001
    outer loop
      vertex   -5.371249e+002 -1.201139e+002 1.242734e+003
      vertex   -9.000000e+002 -1.972822e+002 1.299913e+003
      vertex   -1.677980e+002 -6.701541e+001 1.163996e+003
    endloop
  endfacet
  facet normal 2.481780e-001 6.085626e-001 7.536970e-001
    outer loop
      vertex   -5.371249e+002 1.179716e+002 1.242734e+003
      vertex   -1.807018e+002 5.415437e+001 1.176899e+003
      vertex   -1.677980e+002 6.487312e+001 1.163996e+003
    endloop
  endfacet
  facet normal 2.481780e-001 -7.271868e-001 6.400055e-001
    outer loop
      vertex   -5.303179e+002 -1.420224e+002 1.219347e+003
      vertex   -1.677980e+002 -6.701541e+001 1.163996e+003
      vertex   -9.000000e+002 -1.972822e+002 1.299913e+003
    endloop
  endfacet
  facet normal 2.481781e-001 6.085651e-001 7.536950e-001
    outer loop
      vertex   -5.371249e+002 1.179716e+002 1.242734e+003
      vertex   -9.000000e+002 1.577192e+002 1.330129e+003
      vertex   -1.807018e+002 5.415437e+001 1.176899e+003
    endloop
  endfacet
  facet normal 2.481781e-001 4.724370e-001 8.457014e-001
    outer loop
      vertex   -5.430144e+002 9.207088e+001 1.262042e+003
      vertex   -1.807018e+002 5.415437e+001 1.176899e+003
      vertex   -9.000000e+002 1.577192e+002 1.330129e+003
    endloop
  endfacet
  facet normal 2.481781e-001 4.724381e-001 8.457008e-001
    outer loop
      vertex   -5.430144e+002 9.207088e+001 1.262042e+003
      vertex   -1.913558e+002 4.067949e+001 1.187553e+003
      vertex   -1.807018e+002 5.415437e+001 1.176899e+003
    endloop
  endfacet
  facet normal 2.481781e-001 -4.724381e-001 8.457008e-001
    outer loop
      vertex   -5.430144e+002 -9.421317e+001 1.262042e+003
      vertex   -1.807018e+002 -5.629665e+001 1.176899e+003
      vertex   -1.913558e+002 -4.282177e+001 1.187553e+003
    endloop
  endfacet
  facet normal 2.481781e-001 -6.085651e-001 7.536950e-001
    outer loop
      vertex   -5.371249e+002 -1.201139e+002 1.242734e+003
      vertex   -1.807018e+002 -5.629665e+001 1.176899e+003
      vertex   -9.000000e+002 -1.598615e+002 1.330129e+003
    endloop
  endfacet
  facet normal 2.481781e-001 -4.724369e-001 8.457015e-001
    outer loop
      vertex   -5.430144e+002 -9.421317e+001 1.262042e+003
      vertex   -9.000000e+002 -1.598615e+002 1.330129e+003
      vertex   -1.807018e+002 -5.629665e+001 1.176899e+003
    endloop
  endfacet
  facet normal 2.481780e-001 -4.724369e-001 8.457015e-001
    outer loop
      vertex   -5.430144e+002 -9.421317e+001 1.262042e+003
      vertex   -1.913558e+002 -4.282177e+001 1.187553e+003
      vertex   -9.000000e+002 -1.178727e+002 1.353585e+003
    endloop
  endfacet
  facet normal 2.481780e-001 -3.227189e-001 9.133785e-001
    outer loop
      vertex   -5.475840e+002 -6.508103e+001 1.276481e+003
      vertex   -1.913558e+002 -4.282177e+001 1.187553e+003
      vertex   -1.989803e+002 -2.710582e+001 1.195178e+003
    endloop
  endfacet
  facet normal 2.481780e-001 3.227181e-001 9.133787e-001
    outer loop
      vertex   -5.475840e+002 6.293874e+001 1.276481e+003
      vertex   -1.913558e+002 4.067949e+001 1.187553e+003
      vertex   -9.000000e+002 1.157305e+002 1.353585e+003
    endloop
  endfacet
  facet normal 2.481780e-001 4.724370e-001 8.457015e-001
    outer loop
      vertex   -5.430144e+002 9.207088e+001 1.262042e+003
      vertex   -9.000000e+002 1.157305e+002 1.353585e+003
      vertex   -1.913558e+002 4.067949e+001 1.187553e+003
    endloop
  endfacet
  facet normal 2.481780e-001 3.227188e-001 9.133785e-001
    outer loop
      vertex   -5.475840e+002 6.293874e+001 1.276481e+003
      vertex   -1.989803e+002 2.496352e+001 1.195178e+003
      vertex   -1.913558e+002 4.067949e+001 1.187553e+003
    endloop
  endfacet
  facet normal 2.481780e-001 -3.227181e-001 9.133787e-001
    outer loop
      vertex   -5.475840e+002 -6.508103e+001 1.276481e+003
      vertex   -9.000000e+002 -1.178727e+002 1.353585e+003
      vertex   -1.913558e+002 -4.282177e+001 1.187553e+003
    endloop
  endfacet
  facet normal 2.481781e-001 -8.248888e-001 5.079036e-001
    outer loop
      vertex   -5.229955e+002 -1.593783e+002 1.192760e+003
      vertex   -9.000000e+002 -2.290582e+002 1.263809e+003
      vertex   -9.000000e+002 -2.542755e+002 1.222854e+003
    endloop
  endfacet
  facet normal 2.481781e-001 8.248888e-001 5.079036e-001
    outer loop
      vertex   -5.229955e+002 1.572360e+002 1.192760e+003
      vertex   -9.000000e+002 2.521331e+002 1.222854e+003
      vertex   -9.000000e+002 2.269159e+002 1.263809e+003
    endloop
  endfacet
  facet normal 2.481780e-001 -1.637141e-001 9.547803e-001
    outer loop
      vertex   -5.504856e+002 -3.366729e+001 1.285420e+003
      vertex   -9.000000e+002 -7.252380e+001 1.369608e+003
      vertex   -1.989803e+002 -2.710582e+001 1.195178e+003
    endloop
  endfacet
  facet normal 2.481780e-001 -1.637168e-001 9.547798e-001
    outer loop
      vertex   -5.504856e+002 -3.366729e+001 1.285420e+003
      vertex   -1.989803e+002 -2.710582e+001 1.195178e+003
      vertex   -2.029620e+002 -9.920218e+000 1.199160e+003
    endloop
  endfacet
  facet normal 2.481780e-001 3.227181e-001 9.133787e-001
    outer loop
      vertex   -5.475840e+002 6.293874e+001 1.276481e+003
      vertex   -9.000000e+002 7.038152e+001 1.369608e+003
      vertex   -1.989803e+002 2.496352e+001 1.195178e+003
    endloop
  endfacet
  facet normal 2.481780e-001 -3.227181e-001 9.133787e-001
    outer loop
      vertex   -5.475840e+002 -6.508103e+001 1.276481e+003
      vertex   -1.989803e+002 -2.710582e+001 1.195178e+003
      vertex   -9.000000e+002 -7.252380e+001 1.369608e+003
    endloop
  endfacet
  facet normal 2.481780e-001 1.637141e-001 9.547803e-001
    outer loop
      vertex   -5.504856e+002 3.152500e+001 1.285420e+003
      vertex   -1.989803e+002 2.496352e+001 1.195178e+003
      vertex   -9.000000e+002 7.038152e+001 1.369608e+003
    endloop
  endfacet
  facet normal 2.481780e-001 1.637168e-001 9.547798e-001
    outer loop
      vertex   -5.504856e+002 3.152500e+001 1.285420e+003
      vertex   -2.029620e+002 7.777925e+000 1.199160e+003
      vertex   -1.989803e+002 2.496352e+001 1.195178e+003
    endloop
  endfacet
  facet normal 2.481779e-001 0.000000e+000 9.687145e-001
    outer loop
      vertex   -5.514810e+002 -1.071146e+000 1.288448e+003
      vertex   -2.029620e+002 -9.920218e+000 1.199160e+003
      vertex   -2.029620e+002 7.777925e+000 1.199160e+003
    endloop
  endfacet
  facet normal 2.481779e-001 1.637141e-001 9.547803e-001
    outer loop
      vertex   -5.504856e+002 3.152500e+001 1.285420e+003
      vertex   -9.000000e+002 2.297702e+001 1.377736e+003
      vertex   -2.029620e+002 7.777925e+000 1.199160e+003
    endloop
  endfacet
  facet normal 2.481779e-001 0.000000e+000 9.687145e-001
    outer loop
      vertex   -5.514810e+002 -1.071146e+000 1.288448e+003
      vertex   -2.029620e+002 7.777925e+000 1.199160e+003
      vertex   -9.000000e+002 2.297702e+001 1.377736e+003
    endloop
  endfacet
  facet normal 2.481779e-001 0.000000e+000 9.687145e-001
    outer loop
      vertex   -5.514810e+002 -1.071146e+000 1.288448e+003
      vertex   -9.000000e+002 -2.511931e+001 1.377736e+003
      vertex   -2.029620e+002 -9.920218e+000 1.199160e+003
    endloop
  endfacet
  facet normal 2.481779e-001 -1.637141e-001 9.547803e-001
    outer loop
      vertex   -5.504856e+002 -3.366729e+001 1.285420e+003
      vertex   -2.029620e+002 -9.920218e+000 1.199160e+003
      vertex   -9.000000e+002 -2.511931e+001 1.377736e+003
    endloop
  endfacet
  facet normal 2.481781e-001 -7.271863e-001 6.400061e-001
    outer loop
      vertex   -5.303179e+002 -1.420224e+002 1.219347e+003
      vertex   -9.000000e+002 -1.972822e+002 1.299913e+003
      vertex   -9.000000e+002 -2.290582e+002 1.263809e+003
    endloop
  endfacet
  facet normal 2.481780e-001 7.271863e-001 6.400061e-001
    outer loop
      vertex   -5.303179e+002 1.398801e+002 1.219347e+003
      vertex   -9.000000e+002 2.269159e+002 1.263809e+003
      vertex   -9.000000e+002 1.951399e+002 1.299913e+003
    endloop
  endfacet
  facet normal 2.481780e-001 -6.085660e-001 7.536943e-001
    outer loop
      vertex   -5.371249e+002 -1.201139e+002 1.242734e+003
      vertex   -9.000000e+002 -1.598615e+002 1.330129e+003
      vertex   -9.000000e+002 -1.972822e+002 1.299913e+003
    endloop
  endfacet
  facet normal 2.481780e-001 6.085660e-001 7.536943e-001
    outer loop
      vertex   -5.371249e+002 1.179716e+002 1.242734e+003
      vertex   -9.000000e+002 1.951399e+002 1.299913e+003
      vertex   -9.000000e+002 1.577192e+002 1.330129e+003
    endloop
  endfacet
  facet normal 2.481781e-001 4.724366e-001 8.457017e-001
    outer loop
      vertex   -5.430144e+002 9.207088e+001 1.262042e+003
      vertex   -9.000000e+002 1.577192e+002 1.330129e+003
      vertex   -9.000000e+002 1.157305e+002 1.353585e+003
    endloop
  endfacet
  facet normal 2.481781e-001 -4.724365e-001 8.457017e-001
    outer loop
      vertex   -5.430144e+002 -9.421317e+001 1.262042e+003
      vertex   -9.000000e+002 -1.178727e+002 1.353585e+003
      vertex   -9.000000e+002 -1.598615e+002 1.330129e+003
    endloop
  endfacet
  facet normal 2.481780e-001 3.227178e-001 9.133788e-001
    outer loop
      vertex   -5.475840e+002 6.293874e+001 1.276481e+003
      vertex   -9.000000e+002 1.157305e+002 1.353585e+003
      vertex   -9.000000e+002 7.038152e+001 1.369608e+003
    endloop
  endfacet
  facet normal 2.481780e-001 -3.227178e-001 9.133788e-001
    outer loop
      vertex   -5.475840e+002 -6.508103e+001 1.276481e+003
      vertex   -9.000000e+002 -7.252380e+001 1.369608e+003
      vertex   -9.000000e+002 -1.178727e+002 1.353585e+003
    endloop
  endfacet
  facet normal 2.481780e-001 -1.637131e-001 9.547804e-001
    outer loop
      vertex   -5.504856e+002 -3.366729e+001 1.285420e+003
      vertex   -9.000000e+002 -2.511931e+001 1.377736e+003
      vertex   -9.000000e+002 -7.252380e+001 1.369608e+003
    endloop
  endfacet
  facet normal 2.481780e-001 1.637131e-001 9.547805e-001
    outer loop
      vertex   -5.504856e+002 3.152500e+001 1.285420e+003
      vertex   -9.000000e+002 7.038152e+001 1.369608e+003
      vertex   -9.000000e+002 2.297702e+001 1.377736e+003
    endloop
  endfacet
  facet normal 2.481779e-001 0.000000e+000 9.687145e-001
    outer loop
      vertex   -5.514810e+002 -1.071146e+000 1.288448e+003
      vertex   -9.000000e+002 2.297702e+001 1.377736e+003
      vertex   -9.000000e+002 -2.511931e+001 1.377736e+003
    endloop
  endfacet
endsolid
