solid ascii
  facet normal -1.000000e+000 9.824274e-006 -5.877633e-006
    outer loop
      vertex   1.640002e+003 2.573472e+003 3.510776e+003
      vertex   1.640002e+003 2.545919e+003 3.506259e+003
      vertex   1.640001e+003 2.522814e+003 3.550713e+003
    endloop
  endfacet
  facet normal -1.000000e+000 1.003360e-005 -5.768837e-006
    outer loop
      vertex   1.640001e+003 2.522814e+003 3.550713e+003
      vertex   1.640002e+003 2.545919e+003 3.506259e+003
      vertex   1.640001e+003 2.502312e+003 3.557375e+003
    endloop
  endfacet
  facet normal -1.000000e+000 8.367057e-006 -7.190563e-006
    outer loop
      vertex   1.640002e+003 2.545919e+003 3.506259e+003
      vertex   1.640002e+003 2.518040e+003 3.507770e+003
      vertex   1.640001e+003 2.502312e+003 3.557375e+003
    endloop
  endfacet
  facet normal 1.771751e-001 -5.328846e-002 -9.827356e-001
    outer loop
      vertex   1.640002e+003 2.518040e+003 3.507770e+003
      vertex   1.640002e+003 2.545919e+003 3.506259e+003
      vertex   2.353074e+003 2.538923e+003 3.635196e+003
    endloop
  endfacet
  facet normal 1.771769e-001 1.592198e-001 -9.712144e-001
    outer loop
      vertex   1.640002e+003 2.545919e+003 3.506259e+003
      vertex   1.640002e+003 2.573472e+003 3.510776e+003
      vertex   2.353074e+003 2.538923e+003 3.635196e+003
    endloop
  endfacet
  facet normal -1.000000e+000 6.233403e-006 -1.023383e-005
    outer loop
      vertex   1.640002e+003 2.518040e+003 3.507770e+003
      vertex   1.640001e+003 2.491136e+003 3.515240e+003
      vertex   1.640000e+003 2.410565e+003 3.621229e+003
    endloop
  endfacet
  facet normal -1.000000e+000 2.947919e-005 4.378711e-006
    outer loop
      vertex   1.640001e+003 2.484110e+003 3.568926e+003
      vertex   1.640002e+003 2.518040e+003 3.507770e+003
      vertex   1.640001e+003 2.469354e+003 3.584640e+003
    endloop
  endfacet
  facet normal -1.000000e+000 8.971634e-006 -6.998875e-006
    outer loop
      vertex   1.640001e+003 2.502312e+003 3.557375e+003
      vertex   1.640002e+003 2.518040e+003 3.507770e+003
      vertex   1.640001e+003 2.484110e+003 3.568926e+003
    endloop
  endfacet
  facet normal -1.000000e+000 7.806179e-006 -8.744010e-006
    outer loop
      vertex   1.640000e+003 2.410565e+003 3.649150e+003
      vertex   1.640002e+003 2.518040e+003 3.507770e+003
      vertex   1.640000e+003 2.410565e+003 3.621229e+003
    endloop
  endfacet
  facet normal -1.000000e+000 3.043978e-006 -1.236415e-005
    outer loop
      vertex   1.640001e+003 2.469354e+003 3.584640e+003
      vertex   1.640002e+003 2.518040e+003 3.507770e+003
      vertex   1.640000e+003 2.410565e+003 3.649150e+003
    endloop
  endfacet
  facet normal 1.771730e-001 -2.632913e-001 -9.483077e-001
    outer loop
      vertex   1.640001e+003 2.491136e+003 3.515240e+003
      vertex   1.640002e+003 2.518040e+003 3.507770e+003
      vertex   2.353074e+003 2.538923e+003 3.635196e+003
    endloop
  endfacet
  facet normal -1.000000e+000 4.912003e-006 -1.210853e-005
    outer loop
      vertex   1.640002e+003 2.544329e+003 3.549360e+003
      vertex   1.640002e+003 2.573472e+003 3.510776e+003
      vertex   1.640001e+003 2.522814e+003 3.550713e+003
    endloop
  endfacet
  facet normal 1.771783e-001 3.642793e-001 -9.142803e-001
    outer loop
      vertex   1.640002e+003 2.573472e+003 3.510776e+003
      vertex   1.640002e+003 2.599410e+003 3.521110e+003
      vertex   2.353074e+003 2.538923e+003 3.635196e+003
    endloop
  endfacet
  facet normal -1.000000e+000 8.627971e-006 -9.842765e-006
    outer loop
      vertex   1.640002e+003 2.599410e+003 3.521110e+003
      vertex   1.640002e+003 2.573472e+003 3.510776e+003
      vertex   1.640002e+003 2.565504e+003 3.553399e+003
    endloop
  endfacet
  facet normal -1.000000e+000 7.676167e-006 -1.002069e-005
    outer loop
      vertex   1.640002e+003 2.565504e+003 3.553399e+003
      vertex   1.640002e+003 2.573472e+003 3.510776e+003
      vertex   1.640002e+003 2.544329e+003 3.549360e+003
    endloop
  endfacet
  facet normal -1.000000e+000 1.165581e-005 -6.016259e-006
    outer loop
      vertex   1.640001e+003 2.491136e+003 3.515240e+003
      vertex   1.640001e+003 2.466468e+003 3.528318e+003
      vertex   1.640000e+003 2.416567e+003 3.593961e+003
    endloop
  endfacet
  facet normal -1.000000e+000 1.114499e-005 -6.500139e-006
    outer loop
      vertex   1.640000e+003 2.410565e+003 3.621229e+003
      vertex   1.640001e+003 2.491136e+003 3.515240e+003
      vertex   1.640000e+003 2.416567e+003 3.593961e+003
    endloop
  endfacet
  facet normal 1.771706e-001 -4.610034e-001 -8.695323e-001
    outer loop
      vertex   1.640001e+003 2.466468e+003 3.528318e+003
      vertex   1.640001e+003 2.491136e+003 3.515240e+003
      vertex   2.353074e+003 2.538923e+003 3.635196e+003
    endloop
  endfacet
  facet normal -1.000000e+000 1.073774e-005 -8.046157e-006
    outer loop
      vertex   1.640002e+003 2.622520e+003 3.536779e+003
      vertex   1.640002e+003 2.599410e+003 3.521110e+003
      vertex   1.640002e+003 2.585010e+003 3.562578e+003
    endloop
  endfacet
  facet normal -1.000000e+000 1.014185e-005 -8.253087e-006
    outer loop
      vertex   1.640002e+003 2.585010e+003 3.562578e+003
      vertex   1.640002e+003 2.599410e+003 3.521110e+003
      vertex   1.640002e+003 2.565504e+003 3.553399e+003
    endloop
  endfacet
  facet normal 1.771790e-001 5.523133e-001 -8.145904e-001
    outer loop
      vertex   1.640002e+003 2.599410e+003 3.521110e+003
      vertex   1.640002e+003 2.622520e+003 3.536779e+003
      vertex   2.353074e+003 2.538923e+003 3.635196e+003
    endloop
  endfacet
  facet normal -1.000000e+000 2.223938e-005 5.922273e-006
    outer loop
      vertex   1.640001e+003 2.466468e+003 3.528318e+003
      vertex   1.640001e+003 2.445188e+003 3.546394e+003
      vertex   1.640000e+003 2.428291e+003 3.568621e+003
    endloop
  endfacet
  facet normal -1.000000e+000 1.428289e-006 -1.379104e-005
    outer loop
      vertex   1.640000e+003 2.416567e+003 3.593961e+003
      vertex   1.640001e+003 2.466468e+003 3.528318e+003
      vertex   1.640000e+003 2.428291e+003 3.568621e+003
    endloop
  endfacet
  facet normal 1.771680e-001 -6.371480e-001 -7.501026e-001
    outer loop
      vertex   1.640001e+003 2.445188e+003 3.546394e+003
      vertex   1.640001e+003 2.466468e+003 3.528318e+003
      vertex   2.353074e+003 2.538923e+003 3.635196e+003
    endloop
  endfacet
  facet normal -1.000000e+000 8.871191e-006 -1.076000e-005
    outer loop
      vertex   1.640002e+003 2.601423e+003 3.576110e+003
      vertex   1.640002e+003 2.622520e+003 3.536779e+003
      vertex   1.640002e+003 2.585010e+003 3.562578e+003
    endloop
  endfacet
  facet normal -1.000000e+000 9.753622e-006 -1.028666e-005
    outer loop
      vertex   1.640002e+003 2.632758e+003 3.546487e+003
      vertex   1.640002e+003 2.622520e+003 3.536779e+003
      vertex   1.640002e+003 2.601423e+003 3.576110e+003
    endloop
  endfacet
  facet normal 1.779331e-001 6.770760e-001 -7.140783e-001
    outer loop
      vertex   1.640002e+003 2.622520e+003 3.536779e+003
      vertex   1.640002e+003 2.632758e+003 3.546487e+003
      vertex   2.353074e+003 2.538923e+003 3.635196e+003
    endloop
  endfacet
  facet normal 1.771654e-001 -7.835001e-001 -5.956006e-001
    outer loop
      vertex   1.640000e+003 2.428291e+003 3.568621e+003
      vertex   1.640001e+003 2.445188e+003 3.546394e+003
      vertex   2.353074e+003 2.538923e+003 3.635196e+003
    endloop
  endfacet
  facet normal -1.194602e-007 6.869804e-001 7.266759e-001
    outer loop
      vertex   1.970520e+003 2.578007e+003 3.598247e+003
      vertex   2.353074e+003 2.538923e+003 3.635196e+003
      vertex   1.640002e+003 2.632758e+003 3.546487e+003
    endloop
  endfacet
  facet normal -9.181410e-007 6.869779e-001 7.266783e-001
    outer loop
      vertex   1.970520e+003 2.578007e+003 3.598247e+003
      vertex   1.640002e+003 2.632758e+003 3.546487e+003
      vertex   1.640002e+003 2.601423e+003 3.576110e+003
    endloop
  endfacet
  facet normal -1.387566e-001 -1.855616e-001 9.727865e-001
    outer loop
      vertex   2.249000e+003 2.538924e+003 3.635195e+003
      vertex   1.640002e+003 2.565504e+003 3.553399e+003
      vertex   1.640002e+003 2.544329e+003 3.549360e+003
    endloop
  endfacet
  facet normal -1.387546e-001 6.217995e-002 9.883728e-001
    outer loop
      vertex   2.249000e+003 2.538924e+003 3.635195e+003
      vertex   1.640002e+003 2.544329e+003 3.549360e+003
      vertex   1.640001e+003 2.522814e+003 3.550713e+003
    endloop
  endfacet
  facet normal -1.387522e-001 3.060316e-001 9.418559e-001
    outer loop
      vertex   2.249000e+003 2.538924e+003 3.635195e+003
      vertex   1.640001e+003 2.522814e+003 3.550713e+003
      vertex   1.640001e+003 2.502312e+003 3.557375e+003
    endloop
  endfacet
  facet normal -1.387581e-001 -4.216622e-001 8.960732e-001
    outer loop
      vertex   2.249000e+003 2.538924e+003 3.635195e+003
      vertex   1.640002e+003 2.585010e+003 3.562578e+003
      vertex   1.640002e+003 2.565504e+003 3.553399e+003
    endloop
  endfacet
  facet normal -1.387493e-001 5.306472e-001 8.361592e-001
    outer loop
      vertex   2.249000e+003 2.538924e+003 3.635195e+003
      vertex   1.640001e+003 2.502312e+003 3.557375e+003
      vertex   1.640001e+003 2.484110e+003 3.568926e+003
    endloop
  endfacet
  facet normal -1.387873e-001 -6.299788e-001 7.641104e-001
    outer loop
      vertex   2.249000e+003 2.538924e+003 3.635195e+003
      vertex   1.640002e+003 2.601423e+003 3.576110e+003
      vertex   1.640002e+003 2.585010e+003 3.562578e+003
    endloop
  endfacet
  facet normal 1.771630e-001 -8.932191e-001 -4.132467e-001
    outer loop
      vertex   1.640000e+003 2.416567e+003 3.593961e+003
      vertex   1.640000e+003 2.428291e+003 3.568621e+003
      vertex   2.353074e+003 2.538923e+003 3.635196e+003
    endloop
  endfacet
  facet normal -1.387463e-001 7.219179e-001 6.779262e-001
    outer loop
      vertex   2.249000e+003 2.538924e+003 3.635195e+003
      vertex   1.640001e+003 2.484110e+003 3.568926e+003
      vertex   1.640001e+003 2.469354e+003 3.584640e+003
    endloop
  endfacet
  facet normal -4.894844e-007 6.869811e-001 7.266753e-001
    outer loop
      vertex   1.970520e+003 2.578007e+003 3.598247e+003
      vertex   1.640002e+003 2.601423e+003 3.576110e+003
      vertex   2.249000e+003 2.538924e+003 3.635195e+003
    endloop
  endfacet
  facet normal -1.387432e-001 8.678339e-001 4.770898e-001
    outer loop
      vertex   2.249000e+003 2.538924e+003 3.635195e+003
      vertex   1.640001e+003 2.469354e+003 3.584640e+003
      vertex   1.640000e+003 2.458968e+003 3.603531e+003
    endloop
  endfacet
  facet normal -1.000000e+000 6.124630e-006 -9.556722e-006
    outer loop
      vertex   1.640000e+003 2.458968e+003 3.603531e+003
      vertex   1.640001e+003 2.469354e+003 3.584640e+003
      vertex   1.640000e+003 2.410565e+003 3.649150e+003
    endloop
  endfacet
  facet normal 1.771607e-001 -9.611723e-001 -2.115699e-001
    outer loop
      vertex   1.640000e+003 2.410565e+003 3.621229e+003
      vertex   1.640000e+003 2.416567e+003 3.593961e+003
      vertex   2.353074e+003 2.538923e+003 3.635196e+003
    endloop
  endfacet
  facet normal 1.332304e-006 6.869879e-001 7.266688e-001
    outer loop
      vertex   1.970520e+003 2.578007e+003 3.598247e+003
      vertex   2.249000e+003 2.538924e+003 3.635195e+003
      vertex   2.353074e+003 2.538923e+003 3.635196e+003
    endloop
  endfacet
  facet normal -1.000000e+000 5.424330e-006 -1.029976e-005
    outer loop
      vertex   1.640000e+003 2.453607e+003 3.624411e+003
      vertex   1.640000e+003 2.458968e+003 3.603531e+003
      vertex   1.640000e+003 2.410565e+003 3.649150e+003
    endloop
  endfacet
  facet normal -1.387402e-001 9.592164e-001 2.462823e-001
    outer loop
      vertex   2.249000e+003 2.538924e+003 3.635195e+003
      vertex   1.640000e+003 2.458968e+003 3.603531e+003
      vertex   1.640000e+003 2.453607e+003 3.624411e+003
    endloop
  endfacet
  facet normal 1.771587e-001 -9.841823e-001 1.549077e-006
    outer loop
      vertex   1.640000e+003 2.410565e+003 3.649150e+003
      vertex   1.640000e+003 2.410565e+003 3.621229e+003
      vertex   2.353074e+003 2.538923e+003 3.635196e+003
    endloop
  endfacet
  facet normal -1.000000e+000 5.502094e-006 -1.016446e-005
    outer loop
      vertex   1.639999e+003 2.416567e+003 3.676418e+003
      vertex   1.640000e+003 2.453607e+003 3.624411e+003
      vertex   1.640000e+003 2.410565e+003 3.649150e+003
    endloop
  endfacet
  facet normal -1.387378e-001 9.903291e-001 -7.856227e-007
    outer loop
      vertex   2.249000e+003 2.538924e+003 3.635195e+003
      vertex   1.640000e+003 2.453607e+003 3.624411e+003
      vertex   1.640000e+003 2.453607e+003 3.645969e+003
    endloop
  endfacet
  facet normal -1.000000e+000 1.182300e-005 -5.662642e-006
    outer loop
      vertex   1.640000e+003 2.453607e+003 3.645969e+003
      vertex   1.640000e+003 2.453607e+003 3.624411e+003
      vertex   1.639999e+003 2.416567e+003 3.676418e+003
    endloop
  endfacet
  facet normal -1.387347e-001 5.306396e-001 -8.361664e-001
    outer loop
      vertex   2.249000e+003 2.538924e+003 3.635195e+003
      vertex   1.640000e+003 2.484110e+003 3.701454e+003
      vertex   1.640000e+003 2.502312e+003 3.713005e+003
    endloop
  endfacet
  facet normal -1.387359e-001 9.592164e-001 -2.462847e-001
    outer loop
      vertex   2.249000e+003 2.538924e+003 3.635195e+003
      vertex   1.640000e+003 2.453607e+003 3.645969e+003
      vertex   1.640000e+003 2.458968e+003 3.666849e+003
    endloop
  endfacet
  facet normal -1.387423e-001 -4.216624e-001 -8.960755e-001
    outer loop
      vertex   2.249000e+003 2.538924e+003 3.635195e+003
      vertex   1.640000e+003 2.565504e+003 3.716981e+003
      vertex   1.640001e+003 2.585010e+003 3.707802e+003
    endloop
  endfacet
  facet normal -1.387395e-001 -1.855612e-001 -9.727890e-001
    outer loop
      vertex   2.249000e+003 2.538924e+003 3.635195e+003
      vertex   1.640000e+003 2.544329e+003 3.721020e+003
      vertex   1.640000e+003 2.565504e+003 3.716981e+003
    endloop
  endfacet
  facet normal -1.387344e-001 7.219228e-001 -6.779235e-001
    outer loop
      vertex   2.249000e+003 2.538924e+003 3.635195e+003
      vertex   1.640000e+003 2.469354e+003 3.685740e+003
      vertex   1.640000e+003 2.484110e+003 3.701454e+003
    endloop
  endfacet
  facet normal -1.393759e-001 -5.965510e-001 -7.903805e-001
    outer loop
      vertex   2.249000e+003 2.538924e+003 3.635195e+003
      vertex   1.640001e+003 2.585010e+003 3.707802e+003
      vertex   1.640001e+003 2.596125e+003 3.699413e+003
    endloop
  endfacet
  facet normal 1.168771e-005 7.467737e-001 -6.650782e-001
    outer loop
      vertex   1.970519e+003 2.574694e+003 3.675355e+003
      vertex   2.353074e+003 2.538923e+003 3.635196e+003
      vertex   2.249000e+003 2.538924e+003 3.635195e+003
    endloop
  endfacet
  facet normal -1.387348e-001 8.678338e-001 -4.770924e-001
    outer loop
      vertex   2.249000e+003 2.538924e+003 3.635195e+003
      vertex   1.640000e+003 2.458968e+003 3.666849e+003
      vertex   1.640000e+003 2.469354e+003 3.685740e+003
    endloop
  endfacet
  facet normal -1.387355e-001 3.060316e-001 -9.418583e-001
    outer loop
      vertex   2.249000e+003 2.538924e+003 3.635195e+003
      vertex   1.640000e+003 2.502312e+003 3.713005e+003
      vertex   1.640000e+003 2.522814e+003 3.719667e+003
    endloop
  endfacet
  facet normal 1.204374e-005 7.467749e-001 -6.650769e-001
    outer loop
      vertex   1.970519e+003 2.574694e+003 3.675355e+003
      vertex   2.249000e+003 2.538924e+003 3.635195e+003
      vertex   1.640001e+003 2.596125e+003 3.699413e+003
    endloop
  endfacet
  facet normal -1.387372e-001 6.218010e-002 -9.883752e-001
    outer loop
      vertex   2.249000e+003 2.538924e+003 3.635195e+003
      vertex   1.640000e+003 2.522814e+003 3.719667e+003
      vertex   1.640000e+003 2.544329e+003 3.721020e+003
    endloop
  endfacet
  facet normal 1.771567e-001 -2.632914e-001 9.483107e-001
    outer loop
      vertex   1.640000e+003 2.518040e+003 3.762610e+003
      vertex   1.639999e+003 2.491136e+003 3.755140e+003
      vertex   2.353074e+003 2.538923e+003 3.635196e+003
    endloop
  endfacet
  facet normal 1.771558e-001 -4.610033e-001 8.695354e-001
    outer loop
      vertex   1.639999e+003 2.491136e+003 3.755140e+003
      vertex   1.639999e+003 2.466468e+003 3.742062e+003
      vertex   2.353074e+003 2.538923e+003 3.635196e+003
    endloop
  endfacet
  facet normal 1.771553e-001 -6.371427e-001 7.501101e-001
    outer loop
      vertex   1.639999e+003 2.466468e+003 3.742062e+003
      vertex   1.639999e+003 2.445188e+003 3.723986e+003
      vertex   2.353074e+003 2.538923e+003 3.635196e+003
    endloop
  endfacet
  facet normal 1.771553e-001 -7.835037e-001 5.955988e-001
    outer loop
      vertex   1.639999e+003 2.445188e+003 3.723986e+003
      vertex   1.639999e+003 2.428291e+003 3.701759e+003
      vertex   2.353074e+003 2.538923e+003 3.635196e+003
    endloop
  endfacet
  facet normal 1.771571e-001 -9.611723e-001 2.115731e-001
    outer loop
      vertex   1.639999e+003 2.416567e+003 3.676418e+003
      vertex   1.640000e+003 2.410565e+003 3.649150e+003
      vertex   2.353074e+003 2.538923e+003 3.635196e+003
    endloop
  endfacet
  facet normal 1.771603e-001 1.592203e-001 9.712173e-001
    outer loop
      vertex   1.640000e+003 2.573472e+003 3.759604e+003
      vertex   1.640000e+003 2.545919e+003 3.764121e+003
      vertex   2.353074e+003 2.538923e+003 3.635196e+003
    endloop
  endfacet
  facet normal 1.771583e-001 -5.328863e-002 9.827387e-001
    outer loop
      vertex   1.640000e+003 2.545919e+003 3.764121e+003
      vertex   1.640000e+003 2.518040e+003 3.762610e+003
      vertex   2.353074e+003 2.538923e+003 3.635196e+003
    endloop
  endfacet
  facet normal 1.197142e-005 7.467750e-001 -6.650767e-001
    outer loop
      vertex   1.970519e+003 2.574694e+003 3.675355e+003
      vertex   1.640001e+003 2.624804e+003 3.731614e+003
      vertex   2.353074e+003 2.538923e+003 3.635196e+003
    endloop
  endfacet
  facet normal 1.781662e-001 6.457410e-001 7.424792e-001
    outer loop
      vertex   2.353074e+003 2.538923e+003 3.635196e+003
      vertex   1.640001e+003 2.624804e+003 3.731614e+003
      vertex   1.640001e+003 2.622520e+003 3.733601e+003
    endloop
  endfacet
  facet normal 1.771651e-001 5.523135e-001 8.145934e-001
    outer loop
      vertex   1.640001e+003 2.622520e+003 3.733601e+003
      vertex   1.640000e+003 2.599410e+003 3.749270e+003
      vertex   2.353074e+003 2.538923e+003 3.635196e+003
    endloop
  endfacet
  facet normal 1.771559e-001 -8.932190e-001 4.132501e-001
    outer loop
      vertex   1.639999e+003 2.428291e+003 3.701759e+003
      vertex   1.639999e+003 2.416567e+003 3.676418e+003
      vertex   2.353074e+003 2.538923e+003 3.635196e+003
    endloop
  endfacet
  facet normal 1.771627e-001 3.642789e-001 9.142835e-001
    outer loop
      vertex   1.640000e+003 2.599410e+003 3.749270e+003
      vertex   1.640000e+003 2.573472e+003 3.759604e+003
      vertex   2.353074e+003 2.538923e+003 3.635196e+003
    endloop
  endfacet
  facet normal -1.000000e+000 9.068765e-006 -9.012959e-006
    outer loop
      vertex   1.639999e+003 2.428291e+003 3.701759e+003
      vertex   1.640000e+003 2.453607e+003 3.645969e+003
      vertex   1.639999e+003 2.416567e+003 3.676418e+003
    endloop
  endfacet
  facet normal -1.000000e+000 1.024853e-005 -8.477607e-006
    outer loop
      vertex   1.640000e+003 2.458968e+003 3.666849e+003
      vertex   1.640000e+003 2.453607e+003 3.645969e+003
      vertex   1.639999e+003 2.428291e+003 3.701759e+003
    endloop
  endfacet
  facet normal -1.000000e+000 7.715548e-006 -1.070349e-005
    outer loop
      vertex   1.640000e+003 2.469354e+003 3.685740e+003
      vertex   1.640000e+003 2.458968e+003 3.666849e+003
      vertex   1.639999e+003 2.428291e+003 3.701759e+003
    endloop
  endfacet
  facet normal 1.212750e-005 7.467755e-001 -6.650762e-001
    outer loop
      vertex   1.970519e+003 2.574694e+003 3.675355e+003
      vertex   1.640001e+003 2.596125e+003 3.699413e+003
      vertex   1.640001e+003 2.624804e+003 3.731614e+003
    endloop
  endfacet
  facet normal -1.000000e+000 9.171324e-006 -6.971798e-006
    outer loop
      vertex   1.639999e+003 2.445188e+003 3.723986e+003
      vertex   1.640000e+003 2.469354e+003 3.685740e+003
      vertex   1.639999e+003 2.428291e+003 3.701759e+003
    endloop
  endfacet
  facet normal -1.000000e+000 8.126974e-006 -7.631657e-006
    outer loop
      vertex   1.640000e+003 2.484110e+003 3.701454e+003
      vertex   1.640000e+003 2.469354e+003 3.685740e+003
      vertex   1.639999e+003 2.445188e+003 3.723986e+003
    endloop
  endfacet
  facet normal -1.000000e+000 -9.855985e-007 -1.585637e-005
    outer loop
      vertex   1.640001e+003 2.596125e+003 3.699413e+003
      vertex   1.640001e+003 2.585010e+003 3.707802e+003
      vertex   1.640000e+003 2.545919e+003 3.764121e+003
    endloop
  endfacet
  facet normal -1.000000e+000 7.317301e-006 -9.414334e-006
    outer loop
      vertex   1.640000e+003 2.573472e+003 3.759604e+003
      vertex   1.640001e+003 2.596125e+003 3.699413e+003
      vertex   1.640000e+003 2.545919e+003 3.764121e+003
    endloop
  endfacet
  facet normal -1.000000e+000 1.090597e-005 -8.063756e-006
    outer loop
      vertex   1.640000e+003 2.599410e+003 3.749270e+003
      vertex   1.640001e+003 2.596125e+003 3.699413e+003
      vertex   1.640000e+003 2.573472e+003 3.759604e+003
    endloop
  endfacet
  facet normal -1.000000e+000 1.040177e-005 -8.030535e-006
    outer loop
      vertex   1.640001e+003 2.622520e+003 3.733601e+003
      vertex   1.640001e+003 2.596125e+003 3.699413e+003
      vertex   1.640000e+003 2.599410e+003 3.749270e+003
    endloop
  endfacet
  facet normal -1.000000e+000 0.000000e+000 0.000000e+000
    outer loop
      vertex   1.640001e+003 2.624804e+003 3.731614e+003
      vertex   1.640001e+003 2.596125e+003 3.699413e+003
      vertex   1.640001e+003 2.622520e+003 3.733601e+003
    endloop
  endfacet
  facet normal -1.000000e+000 1.123876e-005 -7.141592e-006
    outer loop
      vertex   1.640000e+003 2.502312e+003 3.713005e+003
      vertex   1.640000e+003 2.484110e+003 3.701454e+003
      vertex   1.639999e+003 2.466468e+003 3.742062e+003
    endloop
  endfacet
  facet normal -1.000000e+000 7.460385e-006 -8.783136e-006
    outer loop
      vertex   1.639999e+003 2.466468e+003 3.742062e+003
      vertex   1.640000e+003 2.484110e+003 3.701454e+003
      vertex   1.639999e+003 2.445188e+003 3.723986e+003
    endloop
  endfacet
  facet normal -1.000000e+000 9.232177e-006 -8.764287e-006
    outer loop
      vertex   1.640000e+003 2.545919e+003 3.764121e+003
      vertex   1.640001e+003 2.585010e+003 3.707802e+003
      vertex   1.640000e+003 2.518040e+003 3.762610e+003
    endloop
  endfacet
  facet normal -1.000000e+000 7.255872e-006 -1.117917e-005
    outer loop
      vertex   1.640001e+003 2.585010e+003 3.707802e+003
      vertex   1.640000e+003 2.565504e+003 3.716981e+003
      vertex   1.640000e+003 2.518040e+003 3.762610e+003
    endloop
  endfacet
  facet normal -1.000000e+000 8.948201e-006 -9.215093e-006
    outer loop
      vertex   1.640000e+003 2.522814e+003 3.719667e+003
      vertex   1.640000e+003 2.502312e+003 3.713005e+003
      vertex   1.639999e+003 2.491136e+003 3.755140e+003
    endloop
  endfacet
  facet normal -1.000000e+000 9.724850e-006 -9.009103e-006
    outer loop
      vertex   1.639999e+003 2.491136e+003 3.755140e+003
      vertex   1.640000e+003 2.502312e+003 3.713005e+003
      vertex   1.639999e+003 2.466468e+003 3.742062e+003
    endloop
  endfacet
  facet normal -1.000000e+000 9.926918e-006 -8.400653e-006
    outer loop
      vertex   1.640000e+003 2.565504e+003 3.716981e+003
      vertex   1.640000e+003 2.544329e+003 3.721020e+003
      vertex   1.640000e+003 2.518040e+003 3.762610e+003
    endloop
  endfacet
  facet normal -1.000000e+000 6.396820e-006 -1.149346e-005
    outer loop
      vertex   1.640000e+003 2.544329e+003 3.721020e+003
      vertex   1.640000e+003 2.522814e+003 3.719667e+003
      vertex   1.639999e+003 2.491136e+003 3.755140e+003
    endloop
  endfacet
  facet normal -1.000000e+000 7.326173e-006 -1.004462e-005
    outer loop
      vertex   1.640000e+003 2.518040e+003 3.762610e+003
      vertex   1.640000e+003 2.544329e+003 3.721020e+003
      vertex   1.639999e+003 2.491136e+003 3.755140e+003
    endloop
  endfacet
endsolid
